<?xml version="1.0" encoding="UTF-8" standalone="no"?>
<!-- Created with Inkscape (http://www.inkscape.org/) -->

<svg
   version="1.1"
   id="svg2"
   width="666.66669"
   height="666.66669"
   viewBox="0 0 666.66669 666.66669"
   sodipodi:docname="Blog Post.ai"
   xmlns:inkscape="http://www.inkscape.org/namespaces/inkscape"
   xmlns:sodipodi="http://sodipodi.sourceforge.net/DTD/sodipodi-0.dtd"
   xmlns="http://www.w3.org/2000/svg"
   xmlns:svg="http://www.w3.org/2000/svg">
  <defs
     id="defs6">
    <clipPath
       clipPathUnits="userSpaceOnUse"
       id="clipPath16">
      <path
         d="M 0,500 H 500 V 0 H 0 Z"
         id="path14" />
    </clipPath>
    <clipPath
       clipPathUnits="userSpaceOnUse"
       id="clipPath28">
      <path
         d="M 0,500 H 500 V 0 H 0 Z"
         id="path26" />
    </clipPath>
    <clipPath
       clipPathUnits="userSpaceOnUse"
       id="clipPath40">
      <path
         d="m 418.067,214.622 h 32.236 v -24.204 h -32.236 z"
         id="path38" />
    </clipPath>
    <clipPath
       clipPathUnits="userSpaceOnUse"
       id="clipPath72">
      <path
         d="m 107.663,227.056 h 18.343 v -47.783 h -18.343 z"
         id="path70" />
    </clipPath>
    <clipPath
       clipPathUnits="userSpaceOnUse"
       id="clipPath108">
      <path
         d="M 0,500 H 500 V 0 H 0 Z"
         id="path106" />
    </clipPath>
    <clipPath
       clipPathUnits="userSpaceOnUse"
       id="clipPath120">
      <path
         d="M 49.6372,225.218 H 77.0557 V 187.29 H 49.6372 Z"
         id="path118" />
    </clipPath>
    <clipPath
       clipPathUnits="userSpaceOnUse"
       id="clipPath144">
      <path
         d="m 49.6372,213.757 h 8.874 v -26.463 h -8.874 z"
         id="path142" />
    </clipPath>
    <clipPath
       clipPathUnits="userSpaceOnUse"
       id="clipPath172">
      <path
         d="m 49.6372,270.951 h 27.419 v -37.928 h -27.419 z"
         id="path170" />
    </clipPath>
    <clipPath
       clipPathUnits="userSpaceOnUse"
       id="clipPath196">
      <path
         d="m 49.6372,259.491 h 8.8745 v -26.464 h -8.8745 z"
         id="path194" />
    </clipPath>
    <clipPath
       clipPathUnits="userSpaceOnUse"
       id="clipPath220">
      <path
         d="M 49.6372,316.672 H 77.0557 V 278.744 H 49.6372 Z"
         id="path218" />
    </clipPath>
    <clipPath
       clipPathUnits="userSpaceOnUse"
       id="clipPath244">
      <path
         d="m 49.6372,305.211 h 8.874 v -26.463 h -8.874 z"
         id="path242" />
    </clipPath>
    <clipPath
       clipPathUnits="userSpaceOnUse"
       id="clipPath272">
      <path
         d="M 39.7451,375.327 H 81.7773 V 317.184 H 39.7451 Z"
         id="path270" />
    </clipPath>
    <clipPath
       clipPathUnits="userSpaceOnUse"
       id="clipPath292">
      <path
         d="m 50.2529,369.745 h 31.524 v -20.299 h -31.524 z"
         id="path290" />
    </clipPath>
    <clipPath
       clipPathUnits="userSpaceOnUse"
       id="clipPath312">
      <path
         d="M 50.2529,368.877 H 81.7773 V 317.568 H 50.2529 Z"
         id="path310" />
    </clipPath>
    <clipPath
       clipPathUnits="userSpaceOnUse"
       id="clipPath332">
      <path
         d="m 39.7451,357.758 h 13.604 V 317.19 h -13.604 z"
         id="path330" />
    </clipPath>
    <clipPath
       clipPathUnits="userSpaceOnUse"
       id="clipPath352">
      <path
         d="M 0,500 H 500 V 0 H 0 Z"
         id="path350" />
    </clipPath>
    <clipPath
       clipPathUnits="userSpaceOnUse"
       id="clipPath364">
      <path
         d="M 0,500 H 500 V 0 H 0 Z"
         id="path362" />
    </clipPath>
    <clipPath
       clipPathUnits="userSpaceOnUse"
       id="clipPath416">
      <path
         d="M 0,500 H 500 V 0 H 0 Z"
         id="path414" />
    </clipPath>
    <clipPath
       clipPathUnits="userSpaceOnUse"
       id="clipPath448">
      <path
         d="M 172.82,418.31 H 339.365 V 298.702 H 172.82 Z"
         id="path446" />
    </clipPath>
    <clipPath
       clipPathUnits="userSpaceOnUse"
       id="clipPath572">
      <path
         d="M 0,500 H 500 V 0 H 0 Z"
         id="path570" />
    </clipPath>
    <clipPath
       clipPathUnits="userSpaceOnUse"
       id="clipPath588">
      <path
         d="m 365.618,374.691 h 17.491 v -11.747 h -17.491 z"
         id="path586" />
    </clipPath>
    <clipPath
       clipPathUnits="userSpaceOnUse"
       id="clipPath718">
      <path
         d="m 386.68,364.912 h 11.753 V 349.613 H 386.68 Z"
         id="path716" />
    </clipPath>
  </defs>
  <sodipodi:namedview
     id="namedview4"
     pagecolor="#ffffff"
     bordercolor="#000000"
     borderopacity="0.25"
     inkscape:showpageshadow="2"
     inkscape:pageopacity="0.0"
     inkscape:pagecheckerboard="0"
     inkscape:deskcolor="#d1d1d1" />
  <g
     id="g8"
     inkscape:groupmode="layer"
     inkscape:label="Blog Post"
     transform="matrix(1.3333333,0,0,-1.3333333,0,666.66667)">

    <g
       id="g22">
      <g
         id="g24"
         clip-path="url(#clipPath28)">
        <g
           id="g30"
           transform="translate(419.498,190.418)">
          <path
             d="m 0,0 c 0,0 1.057,5.28 9.569,9.36 8.291,3.974 13.072,3.075 18.762,5.366 5.762,2.318 1.606,13.046 -14.018,8.263 C 0.022,18.614 -1.431,6.241 -1.431,6.241 Z"
             style="fill:#00dfbf;fill-opacity:1;fill-rule:nonzero;stroke:none"
             id="path32" />
        </g>
        <g
           id="g34">
          <g
             id="g36" />
          <g
             id="g48">
            <g
               clip-path="url(#clipPath40)"
               opacity="0.199997"
               id="g46">
              <g
                 transform="translate(419.498,190.418)"
                 id="g44">
                <path
                   d="m 0,0 c 0,0 1.057,5.28 9.569,9.36 8.291,3.974 13.072,3.075 18.762,5.366 5.762,2.318 1.606,13.046 -14.018,8.263 C 0.022,18.614 -1.431,6.241 -1.431,6.241 Z"
                   style="fill:#000000;fill-opacity:1;fill-rule:nonzero;stroke:none"
                   id="path42" />
              </g>
            </g>
          </g>
        </g>
        <g
           id="g50"
           transform="translate(418.0234,192.4043)">
          <path
             d="m 0,0 c -0.059,0 -0.118,0.01 -0.177,0.03 -0.284,0.098 -0.435,0.407 -0.338,0.692 1.964,5.723 7.02,11.041 13.523,14.225 8.36,4.093 14.313,2.786 14.563,2.728 0.292,-0.068 0.475,-0.36 0.408,-0.652 -0.068,-0.294 -0.357,-0.479 -0.653,-0.409 -0.057,0.013 -5.854,1.265 -13.84,-2.645 C 7.237,10.909 2.388,5.824 0.515,0.368 0.437,0.143 0.227,0 0,0"
             style="fill:#fafafa;fill-opacity:1;fill-rule:nonzero;stroke:none"
             id="path52" />
        </g>
        <g
           id="g54"
           transform="translate(418.2744,197.0479)">
          <path
             d="M 0,0 C 0,0 1.026,3.015 4.846,8.868 11.489,19.051 22.317,23.498 27.051,29.317 32.16,35.598 23.334,39.479 15.408,37.28 10.866,36.021 6.726,31.882 4.558,29.088 -3.05,19.284 -2.994,8.098 -2.994,8.098 Z"
             style="fill:#00dfbf;fill-opacity:1;fill-rule:nonzero;stroke:none"
             id="path56" />
        </g>
        <g
           id="g58"
           transform="translate(416.7764,196.7607)">
          <path
             d="m 0,0 c -0.005,0 -0.01,0.001 -0.016,0.001 -0.299,0.008 -0.537,0.259 -0.528,0.56 0.002,0.093 0.325,9.533 5.504,18.844 5.993,10.776 14.904,14.604 15.281,14.761 0.274,0.118 0.595,-0.014 0.712,-0.291 0.116,-0.277 -0.015,-0.597 -0.291,-0.713 C 20.573,33.125 11.713,29.306 5.911,18.876 0.86,9.795 0.547,0.621 0.544,0.529 0.536,0.234 0.294,0 0,0"
             style="fill:#fafafa;fill-opacity:1;fill-rule:nonzero;stroke:none"
             id="path60" />
        </g>
        <g
           id="g62"
           transform="translate(126.0063,187.9863)">
          <path
             d="m 0,0 c -7.189,4.838 -7.511,17.835 -6.467,26.024 1.654,12.981 -5.023,16.01 -8.394,10.263 -1.64,-2.797 -3.699,-8.854 -3.464,-15.91 0.368,-11.06 5.161,-24.289 16.761,-29.091 z"
             style="fill:#00dfbf;fill-opacity:1;fill-rule:nonzero;stroke:none"
             id="path64" />
        </g>
        <g
           id="g66">
          <g
             id="g68" />
          <g
             id="g80">
            <g
               clip-path="url(#clipPath72)"
               opacity="0.199997"
               id="g78">
              <g
                 transform="translate(126.0063,187.9863)"
                 id="g76">
                <path
                   d="m 0,0 c -7.189,4.838 -7.511,17.835 -6.467,26.024 1.654,12.981 -5.023,16.01 -8.394,10.263 -1.64,-2.797 -3.699,-8.854 -3.464,-15.91 0.368,-11.06 5.161,-24.289 16.761,-29.091 z"
                   style="fill:#000000;fill-opacity:1;fill-rule:nonzero;stroke:none"
                   id="path74" />
              </g>
            </g>
          </g>
        </g>
        <g
           id="g82"
           transform="translate(124.5239,180.0117)">
          <path
             d="m 0,0 c -0.115,0 -0.231,0.039 -0.325,0.12 -12.174,10.411 -14.077,29.014 -10.695,41.892 0.07,0.267 0.344,0.431 0.611,0.356 0.267,-0.07 0.427,-0.344 0.356,-0.61 C -13.358,29.172 -11.521,11.012 0.325,0.88 0.535,0.7 0.56,0.385 0.38,0.175 0.281,0.06 0.141,0 0,0"
             style="fill:#fafafa;fill-opacity:1;fill-rule:nonzero;stroke:none"
             id="path84" />
        </g>
        <g
           id="g86"
           transform="translate(136.8066,164.0391)">
          <path
             d="m 0,0 c -6.258,-4.494 -20.642,-8.385 -25.326,-0.676 -4.352,7.163 -1.44,10.301 -10.274,9.062 -8.834,-1.24 -10.857,5.619 -8.771,11.377 2.086,5.758 -6.607,14.186 -0.26,20.728 6.347,6.542 10.037,-7.058 13.684,-8.534 3.648,-1.475 5.929,1.701 10.173,-0.61 C -16.53,29.035 -16.131,19.593 -12,19.408 -5.234,19.105 6.147,19.147 6.985,13.116 7.823,7.084 0,0 0,0"
             style="fill:#00dfbf;fill-opacity:1;fill-rule:nonzero;stroke:none"
             id="path88" />
        </g>
        <g
           id="g90"
           transform="translate(139.4014,166.6357)">
          <path
             d="m 0,0 c -0.017,0 -0.035,0.001 -0.052,0.003 -32.753,3.424 -45.422,31.971 -46.202,36.16 -0.05,0.272 0.129,0.533 0.4,0.583 0.269,0.052 0.533,-0.128 0.583,-0.399 C -44.509,32.253 -32.097,4.358 0.051,0.997 0.326,0.969 0.525,0.723 0.497,0.448 0.47,0.191 0.253,0 0,0"
             style="fill:#fafafa;fill-opacity:1;fill-rule:nonzero;stroke:none"
             id="path92" />
        </g>
        <g
           id="g94"
           transform="translate(103.5889,179.4404)">
          <path
             d="m 0,0 c -3.325,0 -5.999,0.467 -6.167,0.497 -0.272,0.049 -0.453,0.309 -0.405,0.58 0.049,0.273 0.307,0.452 0.58,0.404 C -5.932,1.472 0.163,0.408 5.296,1.495 5.567,1.548 5.832,1.38 5.889,1.109 5.946,0.839 5.773,0.574 5.503,0.517 3.669,0.129 1.745,0 0,0"
             style="fill:#fafafa;fill-opacity:1;fill-rule:nonzero;stroke:none"
             id="path96" />
        </g>
        <g
           id="g98"
           transform="translate(113.3599,176.4453)">
          <path
             d="m 0,0 c -0.037,0 -0.073,0.004 -0.11,0.013 -0.27,0.06 -0.439,0.328 -0.378,0.596 1.667,7.405 0.719,13.516 0.709,13.578 -0.044,0.272 0.142,0.528 0.414,0.572 0.271,0.05 0.53,-0.142 0.573,-0.413 C 1.25,14.09 2.199,7.992 0.487,0.391 0.435,0.158 0.229,0 0,0"
             style="fill:#fafafa;fill-opacity:1;fill-rule:nonzero;stroke:none"
             id="path100" />
        </g>
      </g>
    </g>
    <g
       id="g102">
      <g
         id="g104"
         clip-path="url(#clipPath108)">
        <g
           id="g110"
           transform="translate(52.0728,215.5752)">
          <path
             d="m 0,0 15.692,9.061 c 1.346,0.776 3.527,0.776 4.872,0 L 22.547,7.915 C 23.893,7.139 24.983,5.25 24.983,3.696 v -18.12 c 0,-1.554 -1.09,-3.442 -2.436,-4.219 l -15.692,-9.06 c -1.345,-0.776 -3.526,-0.776 -4.872,0 L 0,-26.558 c -1.345,0.777 -2.436,2.665 -2.436,4.219 v 18.12 c 0,1.554 1.091,3.443 2.436,4.219"
             style="fill:#00dfbf;fill-opacity:1;fill-rule:nonzero;stroke:none"
             id="path112" />
        </g>
        <g
           id="g114">
          <g
             id="g116" />
          <g
             id="g128">
            <g
               clip-path="url(#clipPath120)"
               opacity="0.5"
               id="g126">
              <g
                 transform="translate(52.0728,215.5752)"
                 id="g124">
                <path
                   d="m 0,0 15.692,9.061 c 1.346,0.776 3.527,0.776 4.872,0 L 22.547,7.915 C 23.893,7.139 24.983,5.25 24.983,3.696 v -18.12 c 0,-1.554 -1.09,-3.442 -2.436,-4.219 l -15.692,-9.06 c -1.345,-0.776 -3.526,-0.776 -4.872,0 L 0,-26.558 c -1.345,0.777 -2.436,2.665 -2.436,4.219 v 18.12 c 0,1.554 1.091,3.443 2.436,4.219"
                   style="fill:#fafafa;fill-opacity:1;fill-rule:nonzero;stroke:none"
                   id="path122" />
              </g>
            </g>
          </g>
        </g>
        <g
           id="g130"
           transform="translate(77.0557,219.2715)">
          <path
             d="m 0,0 c 0,1.554 -1.09,2.184 -2.436,1.406 l -15.692,-9.059 c -1.346,-0.778 -2.436,-2.666 -2.436,-4.219 l 0.001,-18.121 c 0,-1.553 1.09,-2.183 2.435,-1.406 l 15.692,9.06 C -1.09,-21.562 0,-19.674 0,-18.12 Z"
             style="fill:#00dfbf;fill-opacity:1;fill-rule:nonzero;stroke:none"
             id="path132" />
        </g>
        <g
           id="g134"
           transform="translate(49.6372,193.2363)">
          <path
             d="M 0,0 C 0,-1.554 1.091,-3.442 2.436,-4.219 L 4.419,-5.364 C 5.635,-6.065 7.527,-6.127 8.874,-5.561 7.728,-5.994 6.855,-5.347 6.855,-3.958 L 6.854,14.163 c 0,0.776 0.273,1.637 0.714,2.4 L 0.713,20.521 C 0.272,19.758 0,18.896 0,18.12 Z"
             style="fill:#00dfbf;fill-opacity:1;fill-rule:nonzero;stroke:none"
             id="path136" />
        </g>
        <g
           id="g138">
          <g
             id="g140" />
          <g
             id="g152">
            <g
               clip-path="url(#clipPath144)"
               opacity="0.100006"
               id="g150">
              <g
                 transform="translate(49.6372,193.2363)"
                 id="g148">
                <path
                   d="M 0,0 C 0,-1.554 1.091,-3.442 2.436,-4.219 L 4.419,-5.364 C 5.635,-6.065 7.527,-6.127 8.874,-5.561 7.728,-5.994 6.855,-5.347 6.855,-3.958 L 6.854,14.163 c 0,0.776 0.273,1.637 0.714,2.4 L 0.713,20.521 C 0.272,19.758 0,18.896 0,18.12 Z"
                   style="fill:#000000;fill-opacity:1;fill-rule:nonzero;stroke:none"
                   id="path146" />
              </g>
            </g>
          </g>
        </g>
        <g
           id="g154"
           transform="translate(60.1304,206.1562)">
          <path
             d="m 0,0 13.345,7.738 c 0.358,0.208 0.649,0.04 0.649,-0.374 v -9.053 c 0,-0.415 -0.291,-0.918 -0.649,-1.126 L 0,-10.554 c -0.358,-0.208 -0.649,-0.041 -0.649,0.373 v 9.054 C -0.648,-0.713 -0.358,-0.208 0,0"
             style="fill:#fafafa;fill-opacity:1;fill-rule:nonzero;stroke:none"
             id="path156" />
        </g>
        <g
           id="g158"
           transform="translate(59.4819,205.7793)">
          <path
             d="M 0,0 7.976,-2.585 14.642,8.491 8.191,-3.518 Z"
             style="fill:#e1e1e1;fill-opacity:1;fill-rule:nonzero;stroke:none"
             id="path160" />
        </g>
        <g
           id="g162"
           transform="translate(52.0732,261.3086)">
          <path
             d="m 0,0 15.692,9.06 c 1.346,0.777 3.526,0.777 4.872,0 L 22.547,7.915 C 23.893,7.139 24.982,5.25 24.982,3.696 l 0.001,-18.12 c 0,-1.554 -1.09,-3.442 -2.436,-4.219 l -15.693,-9.06 c -1.345,-0.776 -3.526,-0.776 -4.871,0 L 0,-26.558 c -1.345,0.777 -2.436,2.665 -2.436,4.219 v 18.12 c 0,1.553 1.091,3.442 2.436,4.219"
             style="fill:#00dfbf;fill-opacity:1;fill-rule:nonzero;stroke:none"
             id="path164" />
        </g>
        <g
           id="g166">
          <g
             id="g168" />
          <g
             id="g180">
            <g
               clip-path="url(#clipPath172)"
               opacity="0.5"
               id="g178">
              <g
                 transform="translate(52.0732,261.3086)"
                 id="g176">
                <path
                   d="m 0,0 15.692,9.06 c 1.346,0.777 3.526,0.777 4.872,0 L 22.547,7.915 C 23.893,7.139 24.982,5.25 24.982,3.696 l 0.001,-18.12 c 0,-1.554 -1.09,-3.442 -2.436,-4.219 l -15.693,-9.06 c -1.345,-0.776 -3.526,-0.776 -4.871,0 L 0,-26.558 c -1.345,0.777 -2.436,2.665 -2.436,4.219 v 18.12 c 0,1.553 1.091,3.442 2.436,4.219"
                   style="fill:#fafafa;fill-opacity:1;fill-rule:nonzero;stroke:none"
                   id="path174" />
              </g>
            </g>
          </g>
        </g>
        <g
           id="g182"
           transform="translate(77.0557,265.0049)">
          <path
             d="m 0,0 c 0,1.553 -1.09,2.183 -2.436,1.406 l -15.692,-9.06 c -1.345,-0.777 -2.435,-2.665 -2.435,-4.219 v -18.12 c 0,-1.553 1.09,-2.183 2.435,-1.406 l 15.693,9.06 C -1.09,-21.562 0,-19.674 0,-18.12 Z"
             style="fill:#00dfbf;fill-opacity:1;fill-rule:nonzero;stroke:none"
             id="path184" />
        </g>
        <g
           id="g186"
           transform="translate(49.6372,238.9697)">
          <path
             d="m 0,0 c 0,-1.554 1.091,-3.442 2.436,-4.219 l 1.983,-1.145 c 1.216,-0.701 3.108,-0.763 4.456,-0.197 -1.147,-0.432 -2.02,0.214 -2.02,1.603 v 18.121 c 0,0.776 0.272,1.637 0.713,2.4 L 0.713,20.521 C 0.272,19.757 0,18.897 0,18.12 Z"
             style="fill:#00dfbf;fill-opacity:1;fill-rule:nonzero;stroke:none"
             id="path188" />
        </g>
        <g
           id="g190">
          <g
             id="g192" />
          <g
             id="g204">
            <g
               clip-path="url(#clipPath196)"
               opacity="0.100006"
               id="g202">
              <g
                 transform="translate(49.6372,238.9697)"
                 id="g200">
                <path
                   d="m 0,0 c 0,-1.554 1.091,-3.442 2.436,-4.219 l 1.983,-1.145 c 1.216,-0.701 3.108,-0.763 4.456,-0.197 -1.147,-0.432 -2.02,0.214 -2.02,1.603 v 18.121 c 0,0.776 0.272,1.637 0.713,2.4 L 0.713,20.521 C 0.272,19.757 0,18.897 0,18.12 Z"
                   style="fill:#000000;fill-opacity:1;fill-rule:nonzero;stroke:none"
                   id="path198" />
              </g>
            </g>
          </g>
        </g>
        <g
           id="g206"
           transform="translate(66.6211,243.0508)">
          <path
             d="m 0,0 -1.67,0.133 c -2.199,0.176 -4.82,1.045 -4.82,4.185 0,2.13 1.495,4.719 3.339,5.784 1.437,0.83 2.662,0.489 3.132,-0.708 0.472,1.741 1.696,3.496 3.133,4.325 1.844,1.065 3.339,0.201 3.339,-1.928 0,-3.082 -2.606,-6.985 -4.792,-9.716 z"
             style="fill:#fafafa;fill-opacity:1;fill-rule:nonzero;stroke:none"
             id="path208" />
        </g>
        <g
           id="g210"
           transform="translate(52.0728,307.0293)">
          <path
             d="m 0,0 15.692,9.061 c 1.346,0.776 3.527,0.776 4.872,0 l 1.983,-1.145 c 1.346,-0.777 2.436,-2.666 2.436,-4.22 v -18.12 c 0,-1.554 -1.09,-3.442 -2.436,-4.219 l -15.692,-9.06 c -1.345,-0.776 -3.526,-0.776 -4.872,0 L 0,-26.558 c -1.345,0.777 -2.436,2.665 -2.436,4.219 v 18.12 c 0,1.554 1.091,3.443 2.436,4.219"
             style="fill:#00dfbf;fill-opacity:1;fill-rule:nonzero;stroke:none"
             id="path212" />
        </g>
        <g
           id="g214">
          <g
             id="g216" />
          <g
             id="g228">
            <g
               clip-path="url(#clipPath220)"
               opacity="0.5"
               id="g226">
              <g
                 transform="translate(52.0728,307.0293)"
                 id="g224">
                <path
                   d="m 0,0 15.692,9.061 c 1.346,0.776 3.527,0.776 4.872,0 l 1.983,-1.145 c 1.346,-0.777 2.436,-2.666 2.436,-4.22 v -18.12 c 0,-1.554 -1.09,-3.442 -2.436,-4.219 l -15.692,-9.06 c -1.345,-0.776 -3.526,-0.776 -4.872,0 L 0,-26.558 c -1.345,0.777 -2.436,2.665 -2.436,4.219 v 18.12 c 0,1.554 1.091,3.443 2.436,4.219"
                   style="fill:#fafafa;fill-opacity:1;fill-rule:nonzero;stroke:none"
                   id="path222" />
              </g>
            </g>
          </g>
        </g>
        <g
           id="g230"
           transform="translate(58.9277,279.3267)">
          <path
             d="m 0,0 c -1.345,-0.777 -2.436,-0.147 -2.436,1.406 v 18.12 c 0,1.554 1.091,3.443 2.436,4.219 l 15.692,9.061 c 1.346,0.776 2.436,0.146 2.436,-1.407 v -18.12 c 0,-1.554 -1.09,-3.443 -2.436,-4.219"
             style="fill:#00dfbf;fill-opacity:1;fill-rule:nonzero;stroke:none"
             id="path232" />
        </g>
        <g
           id="g234"
           transform="translate(49.6372,284.6904)">
          <path
             d="M 0,0 C 0,-1.554 1.091,-3.442 2.436,-4.219 L 4.419,-5.364 C 5.635,-6.066 7.527,-6.127 8.874,-5.56 7.728,-5.994 6.855,-5.347 6.855,-3.958 L 6.854,14.163 c 0,0.776 0.273,1.637 0.714,2.4 L 0.713,20.521 C 0.272,19.757 0,18.897 0,18.12 Z"
             style="fill:#00dfbf;fill-opacity:1;fill-rule:nonzero;stroke:none"
             id="path236" />
        </g>
        <g
           id="g238">
          <g
             id="g240" />
          <g
             id="g252">
            <g
               clip-path="url(#clipPath244)"
               opacity="0.100006"
               id="g250">
              <g
                 transform="translate(49.6372,284.6904)"
                 id="g248">
                <path
                   d="M 0,0 C 0,-1.554 1.091,-3.442 2.436,-4.219 L 4.419,-5.364 C 5.635,-6.066 7.527,-6.127 8.874,-5.56 7.728,-5.994 6.855,-5.347 6.855,-3.958 L 6.854,14.163 c 0,0.776 0.273,1.637 0.714,2.4 L 0.713,20.521 C 0.272,19.757 0,18.897 0,18.12 Z"
                   style="fill:#000000;fill-opacity:1;fill-rule:nonzero;stroke:none"
                   id="path246" />
              </g>
            </g>
          </g>
        </g>
        <g
           id="g254"
           transform="translate(63.9097,295.9668)">
          <path
             d="M 0,0 C 0,0 1.834,4.22 2.008,4.829 2.182,5.438 1.996,7.566 1.994,7.971 1.993,8.377 3.664,9.504 4.198,8.342 4.733,7.18 4.782,5.99 4.48,4.442 L 8.549,6.815 C 9.408,7.316 9.764,6.609 9.766,6.051 9.77,5.266 9.332,4.579 9.112,4.298 c 0,0 0.815,0.247 0.82,-0.843 C 9.935,2.847 9.564,1.97 8.948,1.459 c 0,0 0.266,-0.201 0.269,-0.961 0.003,-0.507 -0.566,-1.702 -1.137,-2.036 0,0 0.177,-0.353 0.18,-0.961 C 8.263,-3.234 7.65,-4.328 6.771,-4.841 5.891,-5.354 0.039,-8.767 0.039,-8.767 Z"
             style="fill:#fafafa;fill-opacity:1;fill-rule:nonzero;stroke:none"
             id="path256" />
        </g>
        <g
           id="g258"
           transform="translate(60.0522,283.7422)">
          <path
             d="M 0,0 2.933,1.711 2.889,11.914 -0.044,10.203 Z"
             style="fill:#fafafa;fill-opacity:1;fill-rule:nonzero;stroke:none"
             id="path260" />
        </g>
        <g
           id="g262"
           transform="translate(43.479,360.5449)">
          <path
             d="m 0,0 24.056,13.889 c 2.062,1.191 5.406,1.191 7.468,0 l 3.04,-1.755 c 2.062,-1.191 3.734,-4.087 3.734,-6.467 v -27.778 c 0,-2.382 -1.672,-5.277 -3.734,-6.468 L 10.508,-42.467 c -2.062,-1.191 -5.405,-1.191 -7.468,0 L 0,-40.712 c -2.062,1.191 -3.734,4.086 -3.734,6.467 V -6.467 C -3.734,-4.085 -2.063,-1.19 0,0"
             style="fill:#00dfbf;fill-opacity:1;fill-rule:nonzero;stroke:none"
             id="path264" />
        </g>
        <g
           id="g266">
          <g
             id="g268" />
          <g
             id="g280">
            <g
               clip-path="url(#clipPath272)"
               opacity="0.100006"
               id="g278">
              <g
                 transform="translate(43.479,360.5449)"
                 id="g276">
                <path
                   d="m 0,0 24.056,13.889 c 2.062,1.191 5.406,1.191 7.468,0 l 3.04,-1.755 c 2.062,-1.191 3.734,-4.087 3.734,-6.467 v -27.778 c 0,-2.382 -1.672,-5.277 -3.734,-6.468 L 10.508,-42.467 c -2.062,-1.191 -5.405,-1.191 -7.468,0 L 0,-40.712 c -2.062,1.191 -3.734,4.086 -3.734,6.467 V -6.467 C -3.734,-4.085 -2.063,-1.19 0,0"
                   style="fill:#000000;fill-opacity:1;fill-rule:nonzero;stroke:none"
                   id="path274" />
              </g>
            </g>
          </g>
        </g>
        <g
           id="g282"
           transform="translate(81.7769,366.3838)">
          <path
             d="m 0,0 c 0,1.384 -0.682,4.841 -4.244,2.654 -3.563,-2.186 -21.113,-12.103 -23.518,-13.541 -1.861,-1.113 -3.071,-2.468 -3.762,-4.131 l 1.905,-1.919 z"
             style="fill:#00dfbf;fill-opacity:1;fill-rule:nonzero;stroke:none"
             id="path284" />
        </g>
        <g
           id="g286">
          <g
             id="g288" />
          <g
             id="g300">
            <g
               clip-path="url(#clipPath292)"
               opacity="0.199997"
               id="g298">
              <g
                 transform="translate(81.7769,366.3838)"
                 id="g296">
                <path
                   d="m 0,0 c 0,1.384 -0.682,4.841 -4.244,2.654 -3.563,-2.186 -21.113,-12.103 -23.518,-13.541 -1.861,-1.113 -3.071,-2.468 -3.762,-4.131 l 1.905,-1.919 z"
                   style="fill:#000000;fill-opacity:1;fill-rule:nonzero;stroke:none"
                   id="path294" />
              </g>
            </g>
          </g>
        </g>
        <g
           id="g302"
           transform="translate(53.9873,318.0776)">
          <path
             d="m 0,0 c -2.063,-1.191 -3.734,-0.226 -3.734,2.156 v 27.778 c 0,2.38 1.671,5.276 3.734,6.467 L 24.056,50.29 c 2.062,1.19 3.734,0.225 3.734,-2.156 V 20.356 c 0,-2.381 -1.672,-5.277 -3.734,-6.467"
             style="fill:#00dfbf;fill-opacity:1;fill-rule:nonzero;stroke:none"
             id="path304" />
        </g>
        <g
           id="g306">
          <g
             id="g308" />
          <g
             id="g320">
            <g
               clip-path="url(#clipPath312)"
               opacity="0.100006"
               id="g318">
              <g
                 transform="translate(53.9873,318.0776)"
                 id="g316">
                <path
                   d="m 0,0 c -2.063,-1.191 -3.734,-0.226 -3.734,2.156 v 27.778 c 0,2.38 1.671,5.276 3.734,6.467 L 24.056,50.29 c 2.062,1.19 3.734,0.225 3.734,-2.156 V 20.356 c 0,-2.381 -1.672,-5.277 -3.734,-6.467"
                   style="fill:#000000;fill-opacity:1;fill-rule:nonzero;stroke:none"
                   id="path314" />
              </g>
            </g>
          </g>
        </g>
        <g
           id="g322"
           transform="translate(39.7451,326.3003)">
          <path
             d="m 0,0 c 0,-2.381 1.672,-5.277 3.734,-6.467 l 3.04,-1.756 c 1.864,-1.076 4.765,-1.17 6.83,-0.301 -1.758,-0.664 -3.096,0.327 -3.096,2.457 v 27.778 c 0,1.19 0.418,2.51 1.093,3.68 L 1.093,31.458 C 0.417,30.288 0,28.968 0,27.778 Z"
             style="fill:#00dfbf;fill-opacity:1;fill-rule:nonzero;stroke:none"
             id="path324" />
        </g>
        <g
           id="g326">
          <g
             id="g328" />
          <g
             id="g340">
            <g
               clip-path="url(#clipPath332)"
               opacity="0.199997"
               id="g338">
              <g
                 transform="translate(39.7451,326.3003)"
                 id="g336">
                <path
                   d="m 0,0 c 0,-2.381 1.672,-5.277 3.734,-6.467 l 3.04,-1.756 c 1.864,-1.076 4.765,-1.17 6.83,-0.301 -1.758,-0.664 -3.096,0.327 -3.096,2.457 v 27.778 c 0,1.19 0.418,2.51 1.093,3.68 L 1.093,31.458 C 0.417,30.288 0,28.968 0,27.778 Z"
                   style="fill:#000000;fill-opacity:1;fill-rule:nonzero;stroke:none"
                   id="path334" />
              </g>
            </g>
          </g>
        </g>
        <g
           id="g342"
           transform="translate(66.7363,357.7246)">
          <path
             d="m 0,0 3.123,-5.504 6.984,2.86 c 0.66,0.27 0.923,-0.514 0.446,-1.327 l -5.054,-8.605 1.193,-7.343 c 0.113,-0.694 -0.577,-1.67 -1.167,-1.653 l -6.246,0.186 -6.247,-7.399 c -0.59,-0.698 -1.279,-0.518 -1.167,0.306 l 1.194,8.72 -5.054,2.77 c -0.478,0.262 -0.214,1.35 0.446,1.842 l 6.984,5.204 3.123,9.11 C -1.147,0.028 -0.295,0.52 0,0"
             style="fill:#fafafa;fill-opacity:1;fill-rule:nonzero;stroke:none"
             id="path344" />
        </g>
      </g>
    </g>
    
    <g
       id="g358">
      <g
         id="g360"
         clip-path="url(#clipPath364)">
        <g
           id="g366"
           transform="translate(132.1997,164.5303)">
          <path
             d="m 0,0 c 0,-2.59 1.939,-5.81 4.331,-7.19 l 121.325,-70.047 c 2.391,-1.381 6.269,-1.381 8.66,0 l 166.008,95.843 c 2.391,1.381 4.33,4.601 4.33,7.191 0,2.591 -1.939,5.81 -4.33,7.191 l -121.326,70.047 c -2.391,1.381 -6.269,1.381 -8.661,0 L 4.33,7.19 C 1.938,5.81 0,2.591 0,0"
             style="fill:#2b454e;fill-opacity:1;fill-rule:nonzero;stroke:none"
             id="path368" />
        </g>
        <g
           id="g370"
           transform="translate(182.2559,198.1211)">
          <path
             d="m 0,0 -45.727,-26.4 c -2.391,-1.381 -4.329,-4.6 -4.329,-7.191 0,-2.59 1.939,-5.809 4.33,-7.19 L 75.6,-110.828 c 1.196,-0.691 2.763,-1.036 4.331,-1.036 V 0 Z"
             style="fill:#1a2e35;fill-opacity:1;fill-rule:nonzero;stroke:none"
             id="path372" />
        </g>
        <g
           id="g374"
           transform="translate(128.1377,171.5664)">
          <path
             d="M 0,0 C -2.243,1.295 -4.062,4.584 -4.062,7.345 V 152.13 c 0,2.761 1.938,6.119 4.33,7.5 l 166.006,95.844 c 2.392,1.38 6.15,1.45 8.393,0.155 2.244,-1.296 4.062,-4.584 4.062,-7.345 V 103.499 c 0,-2.762 -1.938,-6.12 -4.33,-7.5 L 8.392,0.154 C 6,-1.227 2.243,-1.296 0,0"
             style="fill:#375a64;fill-opacity:1;fill-rule:nonzero;stroke:none"
             id="path376" />
        </g>
        <g
           id="g378"
           transform="translate(144.3867,316.9692)">
          <path
             d="m 0,0 -19.043,10.995 c -0.784,-1.358 -1.269,-2.888 -1.269,-4.268 l 0.001,-144.785 c 0,-2.761 1.819,-6.05 4.062,-7.345 2.243,-1.296 6,-1.226 8.392,0.154 l 18.935,10.933 z"
             style="fill:#1a2e35;fill-opacity:1;fill-rule:nonzero;stroke:none"
             id="path380" />
        </g>
        <g
           id="g382"
           transform="translate(132.1992,319.0059)">
          <path
             d="m 0,0 v -144.785 c 0,-2.761 1.938,-3.881 4.33,-2.5 l 166.008,95.845 c 2.391,1.38 4.33,4.738 4.33,7.5 v 144.784 c 0,2.761 -1.939,3.881 -4.33,2.5 L 4.33,7.5 C 1.938,6.119 0,2.761 0,0"
             style="fill:#2b454e;fill-opacity:1;fill-rule:nonzero;stroke:none"
             id="path384" />
        </g>
        <g
           id="g386"
           transform="translate(136.5293,166.7207)">
          <path
             d="m 0,0 121.326,-70.047 c 2.392,-1.381 6.27,-1.381 8.66,0 l 166.008,95.845 c 2.392,1.38 2.392,3.619 0,5 l -121.326,70.047 c -2.391,1.38 -6.269,1.38 -8.66,0 L 0,5 C -2.392,3.619 -2.392,1.381 0,0"
             style="fill:#375a64;fill-opacity:1;fill-rule:nonzero;stroke:none"
             id="path388" />
        </g>
        <g
           id="g390"
           transform="translate(138.8584,318.4707)">
          <path
             d="m 0,0 161.35,93.154 c 1.434,0.828 2.597,0.157 2.597,-1.5 V -33.68 c 0,-1.657 -1.163,-3.672 -2.597,-4.5 L 0,-131.332 c -1.435,-0.829 -2.598,-0.157 -2.598,1.5 V -4.5 c 0,1.657 1.163,3.671 2.598,4.5"
             style="fill:#fafafa;fill-opacity:1;fill-rule:nonzero;stroke:none"
             id="path392" />
        </g>
        <g
           id="g394"
           transform="translate(150.6123,170.4707)">
          <path
             d="m 0,0 154.091,88.963 c 1.196,0.69 3.135,0.69 4.33,0 l 7.882,-4.55 c 1.195,-0.691 1.195,-1.81 0,-2.5 L 12.188,-7.036 c -1.195,-0.691 -3.134,-0.691 -4.33,0 L 0,-2.5 c -1.196,0.69 -1.196,1.81 0,2.5"
             style="fill:#1a2e35;fill-opacity:1;fill-rule:nonzero;stroke:none"
             id="path396" />
        </g>
        <g
           id="g398"
           transform="translate(170.9248,158.7441)">
          <path
             d="m 0,0 154.089,88.965 c 1.196,0.69 3.135,0.69 4.33,0 l 48.477,-27.989 c 1.195,-0.691 1.195,-1.81 0,-2.5 L 52.982,-30.366 c -1.195,-0.691 -3.136,-0.694 -4.334,-0.006 L 0.004,-2.493 C -1.194,-1.807 -1.196,-0.69 0,0"
             style="fill:#1a2e35;fill-opacity:1;fill-rule:nonzero;stroke:none"
             id="path400" />
        </g>
        <g
           id="g402"
           transform="translate(253.8242,196.6289)">
          <path
             d="M 0,0 C 0.221,-0.127 0.565,-0.134 0.77,-0.016 L 5.595,2.77 C 5.8,2.889 5.787,3.087 5.567,3.214 L -0.012,6.436 C -0.231,6.562 -0.576,6.569 -0.781,6.451 L -5.606,3.665 C -5.811,3.547 -5.798,3.349 -5.578,3.222 Z m 57.407,35.508 c 0.22,-0.127 0.565,-0.135 0.77,-0.016 l 4.824,2.785 c 0.205,0.119 0.193,0.318 -0.027,0.445 l -1.485,0.857 c -0.22,0.127 -0.565,0.134 -0.77,0.016 L 55.895,36.81 c -0.205,-0.12 -0.193,-0.318 0.027,-0.445 z m 43.449,-16.515 4.825,2.785 c 0.205,0.118 0.193,0.318 -0.028,0.445 l -5.579,3.22 C 99.855,25.57 99.51,25.577 99.305,25.46 L 94.48,22.674 c -0.205,-0.118 -0.192,-0.318 0.028,-0.445 l 5.579,-3.22 c 0.22,-0.127 0.564,-0.134 0.769,-0.016 M 83.229,36.884 c 0.22,-0.127 0.564,-0.134 0.77,-0.016 l 4.824,2.785 c 0.205,0.118 0.193,0.318 -0.027,0.445 l -5.579,3.22 c -0.22,0.127 -0.565,0.134 -0.77,0.016 L 77.623,40.549 C 77.418,40.431 77.43,40.231 77.65,40.104 Z M 71.51,43.649 c 0.22,-0.127 0.564,-0.133 0.769,-0.015 l 4.825,2.785 c 0.205,0.119 0.193,0.317 -0.028,0.444 l -1.484,0.859 c -0.221,0.126 -0.565,0.133 -0.77,0.014 l -4.825,-2.785 c -0.205,-0.118 -0.192,-0.317 0.027,-0.444 z M 50.355,31.437 c 0.221,-0.127 0.565,-0.134 0.77,-0.016 l 4.825,2.785 c 0.205,0.118 0.193,0.317 -0.027,0.444 l -1.485,0.858 c -0.22,0.127 -0.565,0.134 -0.77,0.015 L 48.844,32.738 C 48.639,32.62 48.65,32.421 48.871,32.294 Z M 14.103,8.143 c 0.22,-0.127 0.565,-0.135 0.77,-0.016 l 4.824,2.785 c 0.205,0.118 0.193,0.317 -0.027,0.444 l -5.579,3.221 c -0.22,0.127 -0.565,0.134 -0.77,0.016 L 8.497,11.808 C 8.292,11.689 8.305,11.49 8.524,11.363 Z M 7.052,4.071 C 7.271,3.944 7.616,3.938 7.821,4.056 l 4.825,2.785 c 0.205,0.118 0.193,0.317 -0.027,0.444 L 7.04,10.506 C 6.819,10.633 6.475,10.641 6.27,10.521 L 1.445,7.736 C 1.24,7.618 1.253,7.419 1.473,7.292 Z m 29.763,17.185 c 0.22,-0.128 0.566,-0.135 0.771,-0.017 l 4.824,2.786 c 0.204,0.119 0.193,0.318 -0.027,0.445 l -5.579,3.22 c -0.22,0.127 -0.565,0.134 -0.77,0.016 L 31.21,24.921 c -0.205,-0.119 -0.193,-0.317 0.026,-0.444 z M 21.154,12.214 c 0.22,-0.128 0.565,-0.135 0.77,-0.017 l 4.825,2.786 c 0.204,0.119 0.192,0.318 -0.028,0.445 l -5.578,3.22 c -0.221,0.127 -0.565,0.134 -0.77,0.016 l -4.825,-2.785 c -0.205,-0.118 -0.193,-0.317 0.028,-0.445 z m 22.713,13.112 c 0.22,-0.127 0.565,-0.134 0.77,-0.015 l 4.824,2.785 c 0.205,0.119 0.192,0.317 -0.027,0.445 l -5.58,3.221 c -0.219,0.127 -0.564,0.134 -0.769,0.015 l -4.824,-2.785 c -0.204,-0.118 -0.193,-0.318 0.027,-0.444 z M 29.765,17.185 c 0.219,-0.127 0.564,-0.135 0.769,-0.016 l 4.824,2.785 c 0.205,0.118 0.194,0.317 -0.027,0.444 l -5.578,3.221 c -0.221,0.128 -0.566,0.135 -0.771,0.017 L 24.158,20.85 c -0.205,-0.119 -0.192,-0.318 0.028,-0.445 z m 34.693,22.393 c 0.221,-0.127 0.565,-0.134 0.771,-0.015 l 4.824,2.786 c 0.205,0.118 0.192,0.316 -0.028,0.443 L 68.54,43.65 c -0.22,0.127 -0.564,0.134 -0.769,0.016 L 62.946,40.88 c -0.205,-0.118 -0.193,-0.317 0.028,-0.444 z m -32.26,-60.224 4.825,2.785 c 0.206,0.118 0.193,0.317 -0.027,0.444 l -5.579,3.221 c -0.22,0.127 -0.564,0.134 -0.77,0.016 l -4.824,-2.786 c -0.205,-0.118 -0.192,-0.317 0.028,-0.444 l 5.578,-3.221 c 0.22,-0.127 0.564,-0.134 0.769,-0.015 m -14.102,-8.142 4.825,2.785 c 0.205,0.118 0.193,0.316 -0.027,0.444 l -5.58,3.221 c -0.219,0.127 -0.564,0.135 -0.769,0.016 l -4.824,-2.785 c -0.205,-0.119 -0.194,-0.318 0.027,-0.445 l 5.579,-3.221 c 0.22,-0.126 0.565,-0.134 0.769,-0.015 m 7.051,4.07 4.825,2.785 c 0.205,0.12 0.193,0.318 -0.028,0.445 l -5.578,3.221 c -0.22,0.127 -0.564,0.134 -0.769,0.016 l -4.826,-2.786 c -0.204,-0.117 -0.192,-0.317 0.028,-0.443 l 5.579,-3.222 c 0.22,-0.127 0.564,-0.134 0.769,-0.016 m -28.205,-16.284 4.825,2.785 c 0.205,0.119 0.193,0.318 -0.028,0.446 l -5.578,3.219 c -0.22,0.128 -0.565,0.135 -0.77,0.017 l -4.824,-2.785 c -0.206,-0.119 -0.193,-0.318 0.027,-0.446 l 5.579,-3.22 c 0.22,-0.127 0.564,-0.134 0.769,-0.016 m 14.103,8.143 4.825,2.785 c 0.204,0.118 0.192,0.317 -0.028,0.444 l -5.578,3.222 c -0.221,0.126 -0.565,0.134 -0.77,0.014 L 4.67,-29.179 c -0.205,-0.118 -0.193,-0.317 0.026,-0.444 l 5.579,-3.221 c 0.221,-0.127 0.565,-0.135 0.77,-0.015 m -7.051,-4.072 4.824,2.785 c 0.205,0.119 0.193,0.318 -0.027,0.445 l -5.579,3.221 c -0.22,0.127 -0.565,0.134 -0.77,0.016 l -4.824,-2.786 c -0.205,-0.118 -0.192,-0.317 0.028,-0.444 l 5.578,-3.221 c 0.22,-0.127 0.565,-0.134 0.77,-0.016 M 70.396,1.867 C 70.617,1.74 70.962,1.733 71.167,1.852 l 4.824,2.785 c 0.205,0.118 0.193,0.317 -0.027,0.444 L 70.385,8.302 C 70.165,8.43 69.82,8.437 69.615,8.318 L 64.791,5.532 C 64.586,5.414 64.598,5.215 64.818,5.088 Z m -31.146,-18.442 4.824,2.785 c 0.206,0.118 0.194,0.317 -0.027,0.444 l -5.578,3.221 c -0.221,0.128 -0.565,0.135 -0.77,0.016 l -4.825,-2.786 c -0.205,-0.118 -0.192,-0.317 0.028,-0.444 l 5.578,-3.221 c 0.221,-0.127 0.565,-0.133 0.77,-0.015 m 39.534,32.027 4.824,2.785 c 0.205,0.118 0.194,0.318 -0.027,0.445 l -5.578,3.22 c -0.221,0.128 -0.565,0.134 -0.77,0.017 l -4.825,-2.786 c -0.205,-0.118 -0.192,-0.318 0.028,-0.445 l 5.579,-3.22 c 0.219,-0.127 0.564,-0.134 0.769,-0.016 m 7.2,-4.586 c 0.22,-0.127 0.565,-0.134 0.769,-0.015 l 4.825,2.785 c 0.205,0.119 0.193,0.317 -0.027,0.445 l -5.579,3.221 c -0.22,0.127 -0.565,0.134 -0.769,0.015 l -4.825,-2.786 c -0.205,-0.118 -0.192,-0.317 0.027,-0.443 z m -39.682,-23.37 14.102,8.142 c 0.205,0.118 0.193,0.317 -0.027,0.444 l -5.579,3.221 c -0.22,0.127 -0.565,0.135 -0.77,0.015 L 39.926,-8.823 c -0.205,-0.118 -0.193,-0.318 0.027,-0.445 l 5.578,-3.22 c 0.221,-0.127 0.566,-0.135 0.771,-0.016 m 15.976,27.629 4.826,2.785 c 0.205,0.119 0.192,0.318 -0.028,0.445 l -5.579,3.22 c -0.22,0.128 -0.564,0.135 -0.769,0.017 l -4.825,-2.786 c -0.206,-0.119 -0.193,-0.317 0.028,-0.445 l 5.578,-3.219 c 0.22,-0.128 0.564,-0.135 0.769,-0.017 m 31.527,-0.203 4.824,2.785 c 0.205,0.119 0.193,0.317 -0.026,0.444 l -5.58,3.221 c -0.219,0.127 -0.564,0.135 -0.769,0.016 l -4.825,-2.785 c -0.204,-0.119 -0.193,-0.318 0.028,-0.445 l 5.578,-3.22 c 0.22,-0.127 0.566,-0.134 0.77,-0.016 M 78.354,3.701 C 78.135,3.828 77.79,3.835 77.585,3.717 L 72.761,0.932 C 72.556,0.813 72.568,0.614 72.788,0.487 l 5.578,-3.221 c 0.221,-0.127 0.565,-0.134 0.77,-0.016 l 4.825,2.785 c 0.205,0.119 0.192,0.318 -0.027,0.445 z m -25.236,-14.57 c -0.22,0.127 -0.564,0.134 -0.769,0.015 l -5.939,-3.428 c -0.204,-0.118 -0.192,-0.317 0.028,-0.444 l 5.58,-3.22 c 0.219,-0.128 0.564,-0.135 0.768,-0.017 l 5.939,3.429 c 0.205,0.118 0.192,0.317 -0.028,0.444 z m -74.595,-43.068 c -0.22,0.127 -0.565,0.134 -0.77,0.016 l -5.938,-3.429 c -0.205,-0.118 -0.192,-0.316 0.028,-0.444 l 5.579,-3.221 c 0.22,-0.127 0.564,-0.133 0.769,-0.015 l 5.938,3.427 c 0.205,0.12 0.193,0.318 -0.027,0.446 z m 58.266,33.64 c -0.22,0.127 -0.564,0.134 -0.769,0.016 l -5.938,-3.428 c -0.205,-0.119 -0.193,-0.317 0.026,-0.445 l 5.58,-3.22 c 0.219,-0.128 0.564,-0.135 0.769,-0.017 l 5.939,3.429 c 0.205,0.118 0.192,0.316 -0.029,0.444 z m -50.101,-28.926 c -0.22,0.127 -0.565,0.134 -0.77,0.016 l -5.938,-3.429 c -0.205,-0.118 -0.192,-0.317 0.028,-0.444 l 5.578,-3.221 c 0.221,-0.127 0.565,-0.134 0.77,-0.015 l 5.938,3.428 c 0.205,0.118 0.193,0.317 -0.027,0.444 z m 41.937,24.212 c -0.221,0.127 -0.565,0.134 -0.771,0.016 l -39.708,-22.927 c -0.206,-0.118 -0.194,-0.317 0.026,-0.443 l 5.579,-3.222 c 0.22,-0.127 0.564,-0.134 0.77,-0.016 l 39.709,22.926 c 0.206,0.119 0.194,0.319 -0.027,0.446 z m 34.143,19.713 c -0.22,0.127 -0.565,0.134 -0.77,0.016 l -7.423,-4.286 c -0.204,-0.119 -0.192,-0.317 0.028,-0.444 l 5.579,-3.221 c 0.219,-0.127 0.564,-0.134 0.769,-0.016 l 7.423,4.285 c 0.205,0.119 0.192,0.318 -0.027,0.444 z M 44.954,-15.583 c -0.22,0.127 -0.565,0.134 -0.769,0.016 l -5.939,-3.428 c -0.205,-0.118 -0.192,-0.317 0.027,-0.445 l 5.58,-3.22 c 0.219,-0.128 0.564,-0.135 0.769,-0.017 l 5.938,3.429 c 0.205,0.118 0.193,0.317 -0.028,0.444 z m 75.721,37.275 -13.549,7.823 c -0.221,0.127 -0.564,0.133 -0.77,0.015 l -4.824,-2.785 c -0.206,-0.118 -0.193,-0.317 0.028,-0.444 l 13.547,-7.822 c 0.221,-0.127 0.565,-0.134 0.77,-0.017 l 4.824,2.786 c 0.206,0.118 0.194,0.317 -0.026,0.444 m -12.631,-0.849 c -0.22,0.127 -0.565,0.134 -0.77,0.015 l -4.824,-2.786 c -0.205,-0.118 -0.192,-0.317 0.028,-0.443 l 5.579,-3.222 c 0.219,-0.127 0.564,-0.134 0.769,-0.015 l 4.824,2.785 c 0.205,0.119 0.193,0.317 -0.027,0.444 z M 71.304,-0.37 c -0.221,0.127 -0.566,0.134 -0.771,0.016 L 65.709,-3.14 c -0.205,-0.119 -0.192,-0.317 0.027,-0.444 l 5.579,-3.222 c 0.22,-0.127 0.565,-0.133 0.77,-0.015 l 4.824,2.786 c 0.205,0.118 0.194,0.317 -0.027,0.443 z m -81.413,-44.703 4.825,2.785 c 0.204,0.119 0.192,0.318 -0.028,0.445 l -5.579,3.221 c -0.22,0.127 -0.564,0.134 -0.769,0.016 l -4.824,-2.786 c -0.205,-0.118 -0.193,-0.317 0.027,-0.444 l 5.579,-3.222 c 0.22,-0.127 0.564,-0.133 0.769,-0.015 M 85.406,7.771 c -0.22,0.127 -0.564,0.135 -0.769,0.016 L 79.812,5.002 C 79.606,4.884 79.619,4.686 79.839,4.558 l 5.579,-3.221 c 0.22,-0.127 0.564,-0.134 0.77,-0.016 l 4.824,2.785 c 0.205,0.119 0.193,0.318 -0.028,0.446 z m 15.587,9 c -0.221,0.127 -0.564,0.134 -0.769,0.016 L 88.348,9.931 C 88.143,9.813 88.155,9.613 88.375,9.486 l 5.579,-3.22 c 0.22,-0.127 0.565,-0.135 0.77,-0.016 l 11.875,6.856 c 0.205,0.119 0.193,0.317 -0.027,0.444 z m -149.436,-44.74 c 0.22,-0.127 0.564,-0.134 0.769,-0.015 l 4.825,2.785 c 0.205,0.118 0.192,0.317 -0.027,0.444 l -5.579,3.221 c -0.22,0.128 -0.565,0.134 -0.77,0.015 l -4.825,-2.785 c -0.204,-0.118 -0.192,-0.317 0.028,-0.444 z m 7.051,4.072 c 0.22,-0.127 0.564,-0.134 0.769,-0.016 l 4.825,2.785 c 0.205,0.118 0.193,0.317 -0.027,0.444 l -5.579,3.221 c -0.22,0.127 -0.565,0.134 -0.77,0.016 l -4.824,-2.785 c -0.205,-0.119 -0.193,-0.318 0.027,-0.445 z m 11.751,-34.754 c -0.221,0.128 -0.565,0.134 -0.77,0.016 l -7.422,-4.285 c -0.206,-0.118 -0.193,-0.317 0.027,-0.444 l 5.578,-3.221 c 0.221,-0.128 0.565,-0.135 0.77,-0.017 l 7.422,4.286 c 0.206,0.119 0.193,0.317 -0.027,0.445 z m -1.632,40.595 c 0.22,-0.127 0.565,-0.133 0.77,-0.015 l 4.824,2.785 c 0.205,0.118 0.193,0.318 -0.027,0.445 l -5.579,3.221 c -0.22,0.127 -0.564,0.134 -0.769,0.016 l -4.825,-2.786 c -0.205,-0.119 -0.192,-0.317 0.028,-0.445 z m 14.103,8.143 c 0.22,-0.127 0.565,-0.135 0.77,-0.016 l 4.824,2.785 c 0.205,0.119 0.193,0.318 -0.028,0.445 l -5.578,3.22 c -0.22,0.127 -0.565,0.135 -0.77,0.016 l -4.824,-2.785 c -0.205,-0.118 -0.193,-0.317 0.027,-0.444 z M -55.495,-32.04 c 0.221,-0.127 0.565,-0.134 0.77,-0.016 l 4.825,2.785 c 0.204,0.119 0.192,0.318 -0.028,0.445 l -5.579,3.222 c -0.22,0.125 -0.564,0.133 -0.769,0.015 l -4.825,-2.786 c -0.205,-0.118 -0.192,-0.317 0.028,-0.444 z m 31.273,18.056 c 0.221,-0.127 0.565,-0.134 0.77,-0.016 l 4.825,2.786 c 0.205,0.117 0.192,0.317 -0.028,0.443 l -5.578,3.221 c -0.22,0.128 -0.565,0.135 -0.77,0.017 l -4.825,-2.785 c -0.205,-0.12 -0.192,-0.318 0.027,-0.446 z m 14.103,8.142 c 0.22,-0.128 0.565,-0.135 0.769,-0.016 l 4.825,2.786 c 0.205,0.118 0.193,0.316 -0.027,0.444 l -5.578,3.221 c -0.221,0.127 -0.566,0.134 -0.771,0.015 l -4.824,-2.785 c -0.205,-0.119 -0.193,-0.317 0.027,-0.444 z m -23.398,-52.285 -5.579,3.221 c -0.219,0.127 -0.565,0.134 -0.769,0.015 l -5.938,-3.428 c -0.205,-0.119 -0.193,-0.318 0.027,-0.445 l 5.579,-3.22 c 0.22,-0.127 0.565,-0.134 0.77,-0.016 l 5.938,3.429 c 0.204,0.118 0.192,0.317 -0.028,0.444 m -4.629,6.529 -5.579,3.221 c -0.22,0.127 -0.565,0.134 -0.77,0.016 l -9.278,-5.357 c -0.205,-0.118 -0.192,-0.317 0.028,-0.444 l 5.578,-3.221 c 0.22,-0.127 0.564,-0.134 0.77,-0.016 l 9.278,5.357 c 0.205,0.118 0.193,0.317 -0.027,0.444 m -24.399,15.488 c 0.219,-0.128 0.564,-0.135 0.769,-0.017 l 4.824,2.786 c 0.205,0.118 0.193,0.317 -0.027,0.444 l -5.579,3.221 c -0.22,0.127 -0.565,0.134 -0.77,0.016 l -4.824,-2.785 c -0.205,-0.119 -0.193,-0.318 0.027,-0.445 z m -4.554,-2.629 -5.578,3.22 c -0.22,0.127 -0.564,0.135 -0.769,0.016 l -5.939,-3.428 c -0.204,-0.118 -0.193,-0.317 0.028,-0.444 l 5.578,-3.221 c 0.22,-0.127 0.566,-0.133 0.77,-0.015 l 5.938,3.427 c 0.205,0.119 0.193,0.318 -0.028,0.445 m 19.127,-9.328 -5.579,3.219 c -0.22,0.128 -0.564,0.135 -0.769,0.017 l -7.423,-4.285 c -0.205,-0.118 -0.192,-0.318 0.028,-0.445 l 5.579,-3.22 c 0.22,-0.127 0.564,-0.135 0.769,-0.017 l 7.423,4.286 c 0.205,0.118 0.192,0.318 -0.028,0.445 m -10.567,3.1 -5.579,3.222 c -0.22,0.127 -0.565,0.134 -0.77,0.016 l -4.824,-2.787 c -0.205,-0.118 -0.193,-0.316 0.027,-0.444 l 5.579,-3.221 c 0.22,-0.127 0.564,-0.133 0.77,-0.015 l 4.824,2.785 c 0.205,0.119 0.193,0.317 -0.027,0.444 m 41.379,-4.178 4.824,2.787 c 0.205,0.118 0.193,0.316 -0.027,0.444 l -5.579,3.221 c -0.22,0.127 -0.564,0.134 -0.769,0.015 l -4.825,-2.785 c -0.205,-0.118 -0.193,-0.317 0.028,-0.444 l 5.578,-3.221 c 0.22,-0.127 0.565,-0.135 0.77,-0.017 m 5.147,28.741 -4.824,-2.786 c -0.205,-0.119 -0.193,-0.318 0.027,-0.445 l 5.58,-3.22 c 0.219,-0.127 0.564,-0.134 0.769,-0.016 l 4.824,2.785 c 0.205,0.118 0.193,0.317 -0.027,0.444 l -5.579,3.221 c -0.219,0.128 -0.565,0.135 -0.77,0.017 m -7.05,-4.072 -4.825,-2.786 c -0.205,-0.118 -0.193,-0.317 0.027,-0.443 l 5.579,-3.222 c 0.22,-0.127 0.565,-0.134 0.77,-0.015 l 4.824,2.785 c 0.205,0.119 0.193,0.317 -0.027,0.444 l -5.579,3.221 c -0.22,0.127 -0.565,0.135 -0.769,0.016 M 9.142,-8.191 4.317,-10.977 c -0.205,-0.119 -0.193,-0.317 0.028,-0.444 l 5.578,-3.222 c 0.221,-0.127 0.564,-0.133 0.769,-0.015 l 4.826,2.786 c 0.205,0.118 0.192,0.316 -0.029,0.443 l -5.578,3.222 c -0.22,0.127 -0.564,0.134 -0.769,0.016 m -14.103,-8.143 -4.825,-2.785 c -0.204,-0.118 -0.193,-0.318 0.028,-0.444 l 5.578,-3.221 c 0.221,-0.127 0.566,-0.134 0.77,-0.016 l 4.825,2.785 c 0.204,0.119 0.192,0.318 -0.027,0.445 l -5.579,3.22 c -0.221,0.127 -0.565,0.135 -0.77,0.016 m 7.052,4.071 -4.825,-2.785 c -0.205,-0.119 -0.193,-0.317 0.027,-0.444 l 5.579,-3.221 c 0.22,-0.127 0.565,-0.135 0.77,-0.016 l 4.824,2.786 c 0.205,0.118 0.192,0.317 -0.027,0.444 l -5.579,3.221 c -0.22,0.127 -0.564,0.133 -0.769,0.015 m -28.206,-16.284 -4.824,-2.785 c -0.206,-0.119 -0.193,-0.317 0.027,-0.444 l 5.579,-3.222 c 0.22,-0.127 0.564,-0.134 0.77,-0.016 l 4.824,2.786 c 0.205,0.119 0.193,0.317 -0.028,0.445 l -5.578,3.221 c -0.22,0.126 -0.565,0.133 -0.77,0.015 m -7.051,-4.071 -4.825,-2.785 c -0.205,-0.118 -0.192,-0.318 0.027,-0.445 l 5.58,-3.22 c 0.219,-0.127 0.564,-0.135 0.769,-0.016 l 4.824,2.785 c 0.206,0.118 0.193,0.318 -0.027,0.445 l -5.578,3.22 c -0.221,0.127 -0.565,0.135 -0.77,0.016 m 25.479,-1.854 4.824,2.785 c 0.205,0.119 0.193,0.318 -0.027,0.445 l -5.579,3.221 c -0.219,0.126 -0.564,0.133 -0.769,0.015 l -4.825,-2.785 c -0.205,-0.118 -0.193,-0.317 0.027,-0.444 l 5.579,-3.221 c 0.22,-0.127 0.565,-0.135 0.77,-0.016 m -7.052,-4.072 4.825,2.786 c 0.205,0.118 0.193,0.318 -0.027,0.445 l -5.579,3.22 c -0.22,0.127 -0.565,0.134 -0.77,0.016 l -4.824,-2.785 c -0.205,-0.118 -0.193,-0.318 0.027,-0.445 l 5.579,-3.22 c 0.22,-0.127 0.565,-0.134 0.769,-0.017 m -7.051,-4.07 4.825,2.785 c 0.205,0.118 0.193,0.317 -0.027,0.444 l -5.579,3.221 c -0.22,0.127 -0.565,0.135 -0.77,0.017 l -4.825,-2.787 c -0.204,-0.118 -0.192,-0.317 0.028,-0.444 l 5.579,-3.221 c 0.22,-0.127 0.564,-0.133 0.769,-0.015 m -18.427,5.926 -4.825,-2.787 c -0.205,-0.118 -0.192,-0.317 0.027,-0.444 l 5.579,-3.221 c 0.22,-0.127 0.565,-0.133 0.769,-0.015 l 4.825,2.785 c 0.205,0.118 0.193,0.317 -0.027,0.444 l -5.579,3.221 c -0.22,0.128 -0.564,0.135 -0.769,0.017 m 10.606,-9.982 c 0.22,-0.127 0.565,-0.134 0.77,-0.016 l 4.825,2.786 c 0.204,0.119 0.192,0.317 -0.028,0.444 l -5.579,3.222 c -0.22,0.127 -0.564,0.133 -0.769,0.015 l -4.824,-2.786 c -0.206,-0.118 -0.193,-0.317 0.027,-0.443 z M 23.244,-0.05 18.42,-2.835 c -0.205,-0.118 -0.192,-0.317 0.027,-0.444 L 24.025,-6.5 c 0.221,-0.127 0.566,-0.135 0.77,-0.016 l 4.825,2.786 c 0.205,0.118 0.192,0.317 -0.027,0.444 l -5.579,3.221 c -0.22,0.127 -0.565,0.133 -0.77,0.015 m 61.822,19.589 c 0.219,-0.127 0.565,-0.134 0.77,-0.017 l 4.824,2.787 c 0.205,0.118 0.193,0.317 -0.027,0.444 l -5.579,3.221 c -0.22,0.127 -0.565,0.133 -0.77,0.015 L 79.46,23.204 C 79.255,23.086 79.267,22.887 79.487,22.76 Z M 16.193,-4.12 11.368,-6.906 c -0.205,-0.118 -0.192,-0.318 0.028,-0.444 l 5.579,-3.221 c 0.219,-0.127 0.564,-0.134 0.769,-0.016 l 4.824,2.785 c 0.205,0.119 0.194,0.318 -0.027,0.445 l -5.578,3.221 c -0.221,0.127 -0.565,0.134 -0.77,0.016 m 53.071,30.64 -4.826,-2.786 c -0.205,-0.118 -0.192,-0.317 0.028,-0.444 l 5.579,-3.221 c 0.221,-0.127 0.564,-0.134 0.769,-0.015 l 4.825,2.785 c 0.205,0.118 0.193,0.317 -0.028,0.444 l -5.578,3.221 c -0.22,0.127 -0.565,0.134 -0.769,0.016 m 16.356,8.983 13.548,-7.822 c 0.221,-0.127 0.564,-0.134 0.77,-0.016 l 4.825,2.785 c 0.205,0.119 0.192,0.318 -0.028,0.445 l -13.548,7.822 c -0.22,0.127 -0.565,0.134 -0.77,0.015 L 85.593,35.947 C 85.388,35.829 85.399,35.63 85.62,35.503 m -1.485,-0.857 c -0.219,0.127 -0.565,0.134 -0.769,0.016 l -4.825,-2.786 c -0.204,-0.118 -0.192,-0.317 0.027,-0.443 l 5.579,-3.222 c 0.22,-0.127 0.565,-0.134 0.77,-0.016 l 4.824,2.785 c 0.205,0.12 0.194,0.318 -0.027,0.445 z M 77.866,24.124 82.69,26.91 c 0.206,0.118 0.193,0.317 -0.027,0.444 l -5.579,3.221 c -0.22,0.127 -0.564,0.134 -0.77,0.016 L 71.49,27.806 c -0.205,-0.119 -0.193,-0.318 0.028,-0.445 l 5.578,-3.221 c 0.219,-0.127 0.565,-0.134 0.77,-0.016 m 15.021,-0.529 4.824,2.785 c 0.205,0.118 0.192,0.317 -0.027,0.444 l -5.58,3.221 c -0.219,0.127 -0.564,0.134 -0.769,0.016 l -4.824,-2.786 c -0.204,-0.118 -0.193,-0.317 0.027,-0.444 l 5.579,-3.221 c 0.22,-0.127 0.565,-0.134 0.77,-0.015 M 6.415,-26.33 l 4.825,2.785 c 0.205,0.119 0.193,0.317 -0.028,0.444 l -5.578,3.222 c -0.22,0.127 -0.565,0.134 -0.77,0.016 L 0.04,-22.649 c -0.205,-0.119 -0.193,-0.318 0.027,-0.444 l 5.579,-3.221 c 0.22,-0.127 0.564,-0.134 0.769,-0.016 m 69.751,65.577 c -0.22,0.127 -0.565,0.135 -0.77,0.017 l -4.824,-2.786 c -0.205,-0.119 -0.193,-0.318 0.027,-0.445 l 5.579,-3.22 c 0.219,-0.127 0.564,-0.134 0.769,-0.016 l 4.824,2.785 c 0.206,0.118 0.194,0.317 -0.026,0.444 z M 31.847,-2.444 36.671,0.341 c 0.206,0.118 0.193,0.317 -0.027,0.444 L 31.065,4.006 C 30.846,4.133 30.501,4.14 30.296,4.021 L 25.471,1.236 C 25.266,1.118 25.278,0.919 25.498,0.792 l 5.579,-3.221 c 0.22,-0.127 0.565,-0.134 0.77,-0.015 m 36.498,37.635 -4.824,-2.785 c -0.206,-0.118 -0.193,-0.317 0.027,-0.444 l 5.579,-3.221 c 0.22,-0.127 0.564,-0.134 0.769,-0.015 l 4.825,2.785 c 0.205,0.119 0.192,0.317 -0.028,0.444 l -5.578,3.222 c -0.22,0.126 -0.565,0.134 -0.77,0.014 M 52.758,26.193 47.934,23.407 c -0.205,-0.118 -0.194,-0.316 0.027,-0.444 l 5.578,-3.221 c 0.221,-0.127 0.565,-0.134 0.77,-0.015 l 4.825,2.785 c 0.204,0.118 0.192,0.317 -0.028,0.444 l -5.579,3.221 c -0.219,0.128 -0.564,0.135 -0.769,0.016 m 8.536,4.928 -4.825,-2.786 c -0.205,-0.118 -0.193,-0.316 0.027,-0.443 l 5.579,-3.222 c 0.22,-0.127 0.565,-0.134 0.77,-0.016 l 4.825,2.785 c 0.205,0.12 0.192,0.318 -0.028,0.446 l -5.579,3.22 c -0.219,0.127 -0.564,0.134 -0.769,0.016 m -61.93,-61.522 4.824,2.786 c 0.206,0.118 0.194,0.317 -0.027,0.443 l -5.578,3.222 c -0.221,0.127 -0.565,0.134 -0.77,0.015 l -4.825,-2.785 c -0.205,-0.119 -0.192,-0.317 0.028,-0.445 l 5.579,-3.221 c 0.219,-0.127 0.564,-0.134 0.769,-0.015 m -36.046,4.956 -4.825,-2.785 c -0.205,-0.12 -0.192,-0.318 0.028,-0.446 l 5.578,-3.22 c 0.22,-0.127 0.565,-0.134 0.77,-0.016 l 4.825,2.786 c 0.204,0.118 0.192,0.317 -0.028,0.444 l -5.579,3.221 c -0.22,0.127 -0.564,0.134 -0.769,0.016 m 7.051,4.071 -4.825,-2.786 c -0.205,-0.118 -0.192,-0.318 0.028,-0.444 l 5.579,-3.221 c 0.22,-0.127 0.564,-0.134 0.769,-0.016 l 4.825,2.785 c 0.204,0.119 0.193,0.318 -0.028,0.445 l -5.578,3.221 c -0.221,0.127 -0.565,0.134 -0.77,0.016 m 7.051,4.07 -4.824,-2.785 c -0.205,-0.118 -0.193,-0.317 0.027,-0.444 l 5.579,-3.221 c 0.22,-0.127 0.565,-0.135 0.77,-0.016 l 4.824,2.786 c 0.205,0.118 0.193,0.317 -0.027,0.444 l -5.58,3.221 c -0.219,0.127 -0.564,0.134 -0.769,0.015 m 14.102,8.143 -4.824,-2.786 c -0.205,-0.117 -0.193,-0.317 0.028,-0.444 l 5.578,-3.22 c 0.22,-0.128 0.565,-0.135 0.77,-0.017 l 4.824,2.786 c 0.206,0.118 0.193,0.317 -0.027,0.445 l -5.579,3.22 c -0.22,0.127 -0.564,0.134 -0.77,0.016 m -35.255,-20.356 -4.825,-2.785 c -0.205,-0.118 -0.192,-0.317 0.027,-0.444 l 5.579,-3.221 c 0.22,-0.127 0.565,-0.135 0.77,-0.016 l 4.824,2.786 c 0.205,0.118 0.193,0.317 -0.027,0.444 l -5.579,3.221 c -0.22,0.127 -0.564,0.134 -0.769,0.015 m 28.205,16.285 -4.825,-2.786 c -0.205,-0.118 -0.193,-0.317 0.027,-0.444 l 5.579,-3.221 c 0.22,-0.127 0.564,-0.134 0.769,-0.016 l 4.825,2.786 c 0.205,0.118 0.193,0.317 -0.027,0.444 l -5.579,3.221 c -0.22,0.127 -0.565,0.134 -0.769,0.016 m -35.257,-20.356 -4.824,-2.785 c -0.205,-0.118 -0.193,-0.317 0.027,-0.444 l 5.579,-3.221 c 0.22,-0.127 0.564,-0.135 0.769,-0.017 l 4.825,2.786 c 0.205,0.119 0.193,0.318 -0.028,0.445 l -5.578,3.22 c -0.22,0.127 -0.565,0.134 -0.77,0.016 m 18.753,-23.683 c 0.22,-0.126 0.564,-0.133 0.769,-0.015 l 4.825,2.786 c 0.205,0.118 0.192,0.316 -0.027,0.443 l -5.579,3.221 c -0.221,0.128 -0.565,0.135 -0.77,0.017 l -4.825,-2.786 c -0.204,-0.119 -0.193,-0.317 0.028,-0.444 z m 7.821,4.056 4.824,2.785 c 0.205,0.118 0.193,0.318 -0.027,0.445 l -5.579,3.221 c -0.22,0.126 -0.565,0.134 -0.77,0.015 l -4.824,-2.785 c -0.205,-0.118 -0.193,-0.318 0.027,-0.445 l 5.579,-3.22 c 0.22,-0.127 0.564,-0.135 0.77,-0.016 m -22.276,6.004 c 0.22,-0.127 0.564,-0.134 0.769,-0.016 l 4.825,2.786 c 0.205,0.118 0.193,0.317 -0.027,0.444 l -5.579,3.221 c -0.22,0.128 -0.564,0.134 -0.77,0.016 l -4.824,-2.786 c -0.205,-0.118 -0.193,-0.317 0.027,-0.444 z m -11.349,9.553 -4.825,-2.786 c -0.205,-0.119 -0.193,-0.318 0.028,-0.445 l 5.578,-3.22 c 0.221,-0.127 0.565,-0.134 0.77,-0.016 l 4.825,2.785 c 0.205,0.118 0.192,0.318 -0.028,0.444 l -5.578,3.221 c -0.221,0.127 -0.565,0.135 -0.77,0.017 m 21.174,-13.083 c 0.22,-0.127 0.565,-0.134 0.77,-0.016 l 4.825,2.786 c 0.204,0.118 0.192,0.318 -0.028,0.445 l -5.579,3.22 c -0.22,0.127 -0.565,0.134 -0.769,0.016 l -4.825,-2.785 c -0.205,-0.119 -0.192,-0.318 0.027,-0.445 z M -1.426,-5.09 -6.25,-7.875 c -0.206,-0.119 -0.193,-0.318 0.027,-0.445 l 5.578,-3.221 c 0.221,-0.127 0.565,-0.134 0.77,-0.016 l 4.825,2.786 c 0.205,0.118 0.193,0.318 -0.027,0.444 l -5.579,3.222 c -0.22,0.126 -0.565,0.133 -0.77,0.015 M 5.626,-1.019 0.801,-3.805 C 0.596,-3.923 0.608,-4.122 0.828,-4.249 L 6.407,-7.47 c 0.22,-0.127 0.565,-0.134 0.77,-0.015 l 4.824,2.785 c 0.205,0.118 0.193,0.317 -0.027,0.444 L 6.396,-1.035 C 6.175,-0.907 5.831,-0.9 5.626,-1.019 m 36.046,-4.956 10.763,6.214 c 0.205,0.118 0.192,0.318 -0.028,0.445 L 38.858,8.506 C 38.639,8.633 38.294,8.64 38.089,8.521 L 32.522,5.308 C 32.317,5.188 32.33,4.99 32.55,4.863 L 39.723,0.722 C 39.942,0.595 39.954,0.396 39.75,0.277 l -4.454,-2.571 c -0.205,-0.118 -0.192,-0.317 0.027,-0.444 l 5.579,-3.221 c 0.22,-0.127 0.565,-0.134 0.77,-0.016 M 48.177,6.982 53,9.769 c 0.205,0.118 0.193,0.317 -0.026,0.444 l -5.579,3.221 c -0.22,0.127 -0.565,0.133 -0.77,0.015 l -4.824,-2.785 c -0.205,-0.118 -0.194,-0.317 0.026,-0.444 l 5.579,-3.221 c 0.22,-0.128 0.565,-0.135 0.771,-0.017 m -34.71,-29.241 4.824,2.785 c 0.205,0.119 0.193,0.318 -0.027,0.445 l -5.578,3.22 c -0.221,0.127 -0.565,0.135 -0.77,0.016 l -4.825,-2.785 c -0.205,-0.118 -0.193,-0.318 0.027,-0.444 l 5.579,-3.221 c 0.22,-0.127 0.565,-0.135 0.77,-0.016 m 7.051,4.071 4.825,2.786 c 0.205,0.118 0.192,0.317 -0.028,0.444 l -5.579,3.221 c -0.219,0.127 -0.564,0.133 -0.769,0.015 l -4.824,-2.785 c -0.205,-0.118 -0.193,-0.317 0.027,-0.444 l 5.578,-3.221 c 0.221,-0.127 0.564,-0.134 0.77,-0.016 m 7.051,4.071 4.826,2.786 c 0.205,0.118 0.192,0.316 -0.029,0.444 l -5.578,3.221 c -0.22,0.127 -0.564,0.134 -0.769,0.016 l -4.826,-2.786 c -0.205,-0.118 -0.192,-0.317 0.028,-0.444 l 5.579,-3.221 c 0.22,-0.127 0.564,-0.134 0.769,-0.016 m 7.052,4.071 4.824,2.786 c 0.204,0.117 0.193,0.318 -0.027,0.444 l -5.579,3.221 c -0.22,0.127 -0.565,0.134 -0.77,0.016 L 28.245,-6.364 C 28.04,-6.483 28.052,-6.682 28.272,-6.81 l 5.58,-3.22 c 0.219,-0.127 0.564,-0.134 0.769,-0.016 M 12.677,3.052 7.853,0.267 C 7.647,0.148 7.66,-0.051 7.88,-0.178 l 5.578,-3.22 c 0.221,-0.127 0.564,-0.135 0.77,-0.016 l 4.825,2.785 c 0.205,0.118 0.192,0.317 -0.028,0.444 L 13.446,3.036 C 13.227,3.163 12.882,3.171 12.677,3.052 M 19.729,7.123 14.903,4.338 C 14.698,4.219 14.711,4.021 14.931,3.894 L 20.51,0.673 c 0.219,-0.128 0.564,-0.135 0.769,-0.017 l 4.825,2.786 c 0.205,0.119 0.193,0.317 -0.028,0.444 L 20.498,7.107 C 20.277,7.234 19.933,7.241 19.729,7.123 M 38.655,18.051 33.83,15.265 c -0.204,-0.118 -0.192,-0.317 0.028,-0.444 l 5.579,-3.22 c 0.22,-0.128 0.565,-0.135 0.769,-0.017 l 4.824,2.785 c 0.205,0.119 0.194,0.319 -0.026,0.445 l -5.579,3.22 c -0.22,0.128 -0.565,0.135 -0.77,0.017 M 30.119,13.122 21.955,8.408 C 21.75,8.291 21.763,8.091 21.982,7.965 l 5.58,-3.222 c 0.219,-0.127 0.564,-0.134 0.769,-0.015 l 8.164,4.713 C 36.7,9.56 36.688,9.759 36.468,9.886 l -5.578,3.221 c -0.221,0.126 -0.566,0.134 -0.771,0.015 m 15.587,9 -4.824,-2.785 c -0.205,-0.119 -0.193,-0.318 0.027,-0.445 l 5.579,-3.221 c 0.22,-0.127 0.565,-0.134 0.77,-0.016 l 4.824,2.785 c 0.205,0.119 0.193,0.318 -0.027,0.445 l -5.579,3.221 c -0.22,0.127 -0.565,0.134 -0.77,0.016 m 9.522,-11.068 4.824,2.785 c 0.205,0.119 0.192,0.318 -0.028,0.445 l -5.579,3.221 c -0.219,0.127 -0.564,0.134 -0.769,0.016 l -4.824,-2.786 c -0.206,-0.118 -0.193,-0.317 0.027,-0.444 l 5.579,-3.222 c 0.22,-0.127 0.564,-0.133 0.77,-0.015"
             style="fill:#e1e1e1;fill-opacity:1;fill-rule:nonzero;stroke:none"
             id="path404" />
        </g>
        <g
           id="g406"
           transform="translate(282.4961,152.8047)">
          <path
             d="M 0,0 52.807,30.487 85.304,11.726 32.496,-18.763 Z"
             style="fill:#1a2e35;fill-opacity:1;fill-rule:nonzero;stroke:none"
             id="path408" />
        </g>
      </g>
    </g>
    <g
       id="g410">
      <g
         id="g412"
         clip-path="url(#clipPath416)">
        <g
           id="g418"
           transform="translate(176.4199,333.6133)">
          <path
             d="m 0,0 157.351,90.845 c 3.077,1.777 5.594,0.323 5.594,-3.23 V -34.258 c 0,-1.65 -1.169,-3.675 -2.597,-4.5 L -1.002,-131.91 c -1.429,-0.825 -2.598,-0.151 -2.598,1.5 V -6.235 c 0,2.286 1.62,5.092 3.6,6.235"
             style="fill:#f5f5f5;fill-opacity:1;fill-rule:nonzero;stroke:none"
             id="path420" />
        </g>
        <g
           id="g422"
           transform="translate(339.3652,418.3096)">
          <path
             d="m 0,0 v 2.919 c 0,3.553 -2.518,5.007 -5.595,3.23 l -157.35,-90.845 c -1.98,-1.143 -3.6,-3.95 -3.6,-6.236 v -5.223 z"
             style="fill:#1a2e35;fill-opacity:1;fill-rule:nonzero;stroke:none"
             id="path424" />
        </g>
        <g
           id="g426"
           transform="translate(315.9023,411.6558)">
          <path
             d="m 0,0 c -1.064,-0.614 -1.928,-2.108 -1.928,-3.337 0,-1.229 0.864,-1.727 1.928,-1.113 1.064,0.615 1.927,2.109 1.927,3.338 C 1.927,0.117 1.064,0.614 0,0"
             style="fill:#e1e1e1;fill-opacity:1;fill-rule:nonzero;stroke:none"
             id="path428" />
        </g>
        <g
           id="g430"
           transform="translate(323.5488,416.0703)">
          <path
             d="m 0,0 c -1.064,-0.614 -1.927,-2.108 -1.927,-3.337 0,-1.229 0.863,-1.727 1.927,-1.113 1.064,0.615 1.927,2.109 1.927,3.338 C 1.927,0.117 1.064,0.615 0,0"
             style="fill:#e1e1e1;fill-opacity:1;fill-rule:nonzero;stroke:none"
             id="path432" />
        </g>
        <g
           id="g434"
           transform="translate(331.1953,420.4854)">
          <path
             d="m 0,0 c -1.063,-0.615 -1.927,-2.109 -1.927,-3.338 0,-1.228 0.863,-1.727 1.927,-1.112 1.064,0.614 1.927,2.109 1.927,3.337 C 1.927,0.116 1.064,0.614 0,0"
             style="fill:#e1e1e1;fill-opacity:1;fill-rule:nonzero;stroke:none"
             id="path436" />
        </g>
        <g
           id="g438"
           transform="translate(172.8198,322.1543)">
          <path
             d="m 0,0 0.001,-23.453 166.542,96.155 0.002,23.453 z"
             style="fill:#00dfbf;fill-opacity:1;fill-rule:nonzero;stroke:none"
             id="path440" />
        </g>
        <g
           id="g442">
          <g
             id="g444" />
          <g
             id="g456">
            <g
               clip-path="url(#clipPath448)"
               opacity="0.100006"
               id="g454">
              <g
                 transform="translate(172.8198,322.1543)"
                 id="g452">
                <path
                   d="m 0,0 0.001,-23.453 166.542,96.155 0.002,23.453 z"
                   style="fill:#000000;fill-opacity:1;fill-rule:nonzero;stroke:none"
                   id="path450" />
              </g>
            </g>
          </g>
        </g>
        <g
           id="g458"
           transform="translate(187.915,315.6094)">
          <path
             d="m 0,0 c 0.442,0.83 0.663,1.833 0.663,3.009 0,0.982 -0.176,1.6 -0.529,1.856 C -0.219,5.12 -0.809,5.009 -1.637,4.531 -2.208,4.201 -2.711,3.746 -3.147,3.165 -3.584,2.583 -3.802,1.975 -3.802,1.342 v -3.934 c 0.191,-0.033 0.448,0.002 0.773,0.106 0.324,0.103 0.648,0.248 0.972,0.436 C -1.128,-1.514 -0.441,-0.83 0,0 m -4.188,-4.687 c -0.728,-0.18 -1.303,-0.212 -1.729,-0.096 V 6.711 c 0,0.246 0.048,0.454 0.143,0.625 0.094,0.171 0.254,0.322 0.478,0.451 l 0.857,0.495 c 0.223,0.129 0.385,0.164 0.486,0.106 0.1,-0.058 0.151,-0.21 0.151,-0.456 V 4.153 c 0.291,0.465 0.672,0.911 1.142,1.338 0.47,0.426 0.973,0.794 1.511,1.104 1.264,0.73 2.237,0.892 2.92,0.484 0.682,-0.407 1.024,-1.333 1.024,-2.781 0,-1.68 -0.4,-3.216 -1.2,-4.609 -0.8,-1.391 -1.984,-2.54 -3.55,-3.445 -0.762,-0.439 -1.506,-0.749 -2.233,-0.931"
             style="fill:#fafafa;fill-opacity:1;fill-rule:nonzero;stroke:none"
             id="path460" />
        </g>
        <g
           id="g462"
           transform="translate(192.498,316.0942)">
          <path
             d="m 0,0 c -0.096,0.061 -0.144,0.208 -0.144,0.441 v 11.765 c 0,0.246 0.048,0.454 0.144,0.625 0.095,0.171 0.254,0.322 0.478,0.451 l 0.889,0.513 c 0.225,0.13 0.387,0.165 0.487,0.107 0.101,-0.058 0.152,-0.21 0.152,-0.456 V 1.682 C 2.006,1.448 1.958,1.247 1.863,1.076 1.768,0.904 1.603,0.75 1.367,0.615 L 0.478,0.101 C 0.254,-0.028 0.095,-0.062 0,0"
             style="fill:#fafafa;fill-opacity:1;fill-rule:nonzero;stroke:none"
             id="path464" />
        </g>
        <g
           id="g466"
           transform="translate(202.5107,324.0264)">
          <path
             d="M 0,0 C 0.413,0.768 0.62,1.663 0.62,2.685 0.62,3.692 0.413,4.338 0,4.623 -0.415,4.907 -1.02,4.819 -1.813,4.36 -2.597,3.908 -3.199,3.3 -3.618,2.534 c -0.42,-0.765 -0.629,-1.652 -0.629,-2.66 0,-1.009 0.209,-1.659 0.629,-1.953 0.419,-0.295 1.021,-0.215 1.805,0.237 C -1.02,-1.383 -0.415,-0.77 0,0 m -5.18,-4.279 c -0.788,0.429 -1.182,1.406 -1.182,2.932 0,1.524 0.394,2.957 1.182,4.297 0.789,1.341 1.911,2.432 3.367,3.272 1.455,0.84 2.579,1.046 3.374,0.619 C 2.355,6.416 2.753,5.44 2.753,3.916 2.753,2.39 2.355,0.956 1.561,-0.388 0.766,-1.732 -0.358,-2.824 -1.813,-3.664 -3.269,-4.504 -4.391,-4.709 -5.18,-4.279"
             style="fill:#fafafa;fill-opacity:1;fill-rule:nonzero;stroke:none"
             id="path468" />
        </g>
        <g
           id="g470"
           transform="translate(212.5811,329.9277)">
          <path
             d="m 0,0 c 0.392,0.607 0.587,1.247 0.587,1.919 v 3.45 C 0.375,5.363 0.106,5.297 -0.218,5.176 -0.543,5.053 -0.884,4.888 -1.242,4.681 -3.011,3.66 -3.895,2.11 -3.895,0.029 c 0,-0.956 0.196,-1.557 0.588,-1.802 0.392,-0.246 0.985,-0.139 1.78,0.32 C -0.901,-1.092 -0.392,-0.607 0,0 m -3.29,-7.395 c -0.615,-0.212 -1.085,-0.296 -1.41,-0.251 -0.18,0.012 -0.224,0.129 -0.135,0.348 l 0.487,1.231 c 0.068,0.168 0.135,0.271 0.202,0.31 0.044,0.026 0.1,0.039 0.168,0.039 0.615,-0.006 1.415,0.274 2.4,0.843 0.75,0.433 1.299,0.957 1.645,1.57 0.347,0.614 0.52,1.411 0.52,2.394 -0.313,-0.568 -0.679,-1.068 -1.099,-1.497 -0.42,-0.43 -0.926,-0.816 -1.519,-1.158 -1.253,-0.724 -2.231,-0.894 -2.929,-0.509 -0.7,0.384 -1.05,1.294 -1.05,2.728 0,1.628 0.417,3.119 1.251,4.472 0.833,1.354 2.039,2.486 3.617,3.397 0.728,0.42 1.442,0.716 2.141,0.888 0.699,0.17 1.268,0.208 1.703,0.11 V 0.872 c 0,-1.564 -0.329,-2.982 -0.99,-4.255 -0.66,-1.273 -1.694,-2.315 -3.106,-3.13 -0.648,-0.374 -1.281,-0.668 -1.896,-0.882"
             style="fill:#fafafa;fill-opacity:1;fill-rule:nonzero;stroke:none"
             id="path472" />
        </g>
        <g
           id="g474"
           transform="translate(201.2549,304.7378)">
          <path
             d="m 0,0 v -82.428 c 0,-0.552 0.285,-0.828 0.637,-0.615 0.352,0.211 0.637,0.832 0.637,1.383 V 0.769 C 1.274,1.321 0.989,1.597 0.637,1.384 0.285,1.172 0,0.552 0,0"
             style="fill:#00dfbf;fill-opacity:1;fill-rule:nonzero;stroke:none"
             id="path476" />
        </g>
        <g
           id="g478"
           transform="translate(152.5112,272.7632)">
          <path
             d="m 0,0 36.29,20.952 c 1.196,0.691 2.165,0.131 2.165,-1.25 V -5.825 c 0.001,-1.381 -0.969,-3.06 -2.165,-3.75 L 0,-30.527 c -1.196,-0.69 -2.165,-0.131 -2.165,1.25 V -3.75 c 0,1.381 0.969,3.06 2.165,3.75"
             style="fill:#e1e1e1;fill-opacity:1;fill-rule:nonzero;stroke:none"
             id="path480" />
        </g>
        <g
           id="g482"
           transform="translate(190.9663,292.4653)">
          <path
             d="m 0,0 c 0,1.381 -0.969,1.94 -2.165,1.25 l -36.29,-20.952 c -1.196,-0.691 -2.165,-2.369 -2.165,-3.75 v -2.175 L 0,-2.175 Z"
             style="fill:#00dfbf;fill-opacity:1;fill-rule:nonzero;stroke:none"
             id="path484" />
        </g>
        <g
           id="g486"
           transform="translate(154.4077,264.4932)">
          <path
             d="M 0,0 16.248,9.381 V -7.036 L 0,-16.416 Z"
             style="fill:#fafafa;fill-opacity:1;fill-rule:nonzero;stroke:none"
             id="path488" />
        </g>
        <g
           id="g490"
           transform="translate(154.4082,250.458)">
          <path
             d="m 0,0 6.093,10.819 c 0.271,0.481 0.793,0.54 1.165,0.132 l 2.134,-2.338 3.668,8.473 c 0.219,0.507 0.654,0.552 0.972,0.1 l 2.216,-3.151 V 6.999 L 0,-2.381 Z"
             style="fill:#00dfbf;fill-opacity:1;fill-rule:nonzero;stroke:none"
             id="path492" />
        </g>
        <g
           id="g494"
           transform="translate(174.7187,274.8042)">
          <path
             d="m 0,0 c 0,-0.782 0.582,-1.08 1.299,-0.666 l 9.587,5.537 c 0.718,0.414 1.3,1.383 1.3,2.165 0,0.781 -0.582,1.079 -1.299,0.665 L 1.299,2.165 C 0.582,1.751 0,0.782 0,0"
             style="fill:#fafafa;fill-opacity:1;fill-rule:nonzero;stroke:none"
             id="path496" />
        </g>
        <g
           id="g498"
           transform="translate(174.7187,268.0503)">
          <path
             d="m 0,0 c 0,-0.782 0.582,-1.08 1.299,-0.666 l 9.587,5.537 c 0.718,0.414 1.3,1.383 1.3,2.165 0,0.781 -0.582,1.079 -1.299,0.665 L 1.299,2.165 C 0.582,1.751 0,0.781 0,0"
             style="fill:#fafafa;fill-opacity:1;fill-rule:nonzero;stroke:none"
             id="path500" />
        </g>
        <g
           id="g502"
           transform="translate(174.7187,261.2959)">
          <path
             d="m 0,0 c 0,-0.781 0.582,-1.08 1.299,-0.665 l 9.587,5.536 c 0.718,0.414 1.3,1.383 1.3,2.165 0,0.781 -0.582,1.079 -1.299,0.665 L 1.299,2.166 C 0.582,1.751 0,0.782 0,0"
             style="fill:#fafafa;fill-opacity:1;fill-rule:nonzero;stroke:none"
             id="path504" />
        </g>
        <g
           id="g506"
           transform="translate(152.5112,233.2383)">
          <path
             d="m 0,0 36.29,20.952 c 1.196,0.691 2.165,0.131 2.165,-1.25 V -5.825 c 0.001,-1.381 -0.969,-3.06 -2.165,-3.75 L 0,-30.527 c -1.196,-0.691 -2.165,-0.131 -2.165,1.25 V -3.75 c 0,1.381 0.969,3.06 2.165,3.75"
             style="fill:#e1e1e1;fill-opacity:1;fill-rule:nonzero;stroke:none"
             id="path508" />
        </g>
        <g
           id="g510"
           transform="translate(190.9663,252.9404)">
          <path
             d="m 0,0 c 0,1.381 -0.969,1.94 -2.165,1.25 l -36.29,-20.952 c -1.196,-0.691 -2.165,-2.369 -2.165,-3.75 v -2.175 L 0,-2.175 Z"
             style="fill:#00dfbf;fill-opacity:1;fill-rule:nonzero;stroke:none"
             id="path512" />
        </g>
        <g
           id="g514"
           transform="translate(154.4077,224.9687)">
          <path
             d="M 0,0 16.248,9.38 V -7.036 L 0,-16.417 Z"
             style="fill:#fafafa;fill-opacity:1;fill-rule:nonzero;stroke:none"
             id="path516" />
        </g>
        <g
           id="g518"
           transform="translate(154.4082,210.9326)">
          <path
             d="m 0,0 6.093,10.819 c 0.271,0.481 0.793,0.54 1.165,0.133 l 2.134,-2.339 3.668,8.474 c 0.219,0.507 0.654,0.551 0.972,0.1 l 2.216,-3.151 V 7 L 0,-2.381 Z"
             style="fill:#00dfbf;fill-opacity:1;fill-rule:nonzero;stroke:none"
             id="path520" />
        </g>
        <g
           id="g522"
           transform="translate(174.7187,235.2793)">
          <path
             d="m 0,0 c 0,-0.782 0.582,-1.08 1.299,-0.665 l 9.587,5.535 c 0.718,0.414 1.3,1.384 1.3,2.165 0,0.782 -0.582,1.08 -1.299,0.666 L 1.299,2.165 C 0.582,1.751 0,0.781 0,0"
             style="fill:#fafafa;fill-opacity:1;fill-rule:nonzero;stroke:none"
             id="path524" />
        </g>
        <g
           id="g526"
           transform="translate(174.7187,228.5254)">
          <path
             d="m 0,0 c 0,-0.782 0.582,-1.08 1.299,-0.666 l 9.587,5.536 c 0.718,0.414 1.3,1.384 1.3,2.165 0,0.782 -0.582,1.08 -1.299,0.665 L 1.299,2.165 C 0.582,1.751 0,0.781 0,0"
             style="fill:#fafafa;fill-opacity:1;fill-rule:nonzero;stroke:none"
             id="path528" />
        </g>
        <g
           id="g530"
           transform="translate(174.7187,221.7705)">
          <path
             d="m 0,0 c 0,-0.781 0.582,-1.079 1.299,-0.665 l 9.587,5.536 c 0.718,0.414 1.3,1.384 1.3,2.165 0,0.781 -0.582,1.079 -1.299,0.665 L 1.299,2.166 C 0.582,1.751 0,0.782 0,0"
             style="fill:#fafafa;fill-opacity:1;fill-rule:nonzero;stroke:none"
             id="path532" />
        </g>
        <g
           id="g534"
           transform="translate(215.6055,271.8145)">
          <path
             d="m 0,0 111.571,64.41 c 1.197,0.69 2.165,0.131 2.165,-1.25 l 10e-4,-32.536 c 0,-1.381 -0.969,-3.06 -2.165,-3.75 L 0,-37.536 c -1.195,-0.691 -2.165,-0.131 -2.165,1.25 V -3.75 c 0,1.38 0.969,3.06 2.165,3.75"
             style="fill:#e1e1e1;fill-opacity:1;fill-rule:nonzero;stroke:none"
             id="path536" />
        </g>
        <g
           id="g538"
           transform="translate(329.3418,334.9741)">
          <path
             d="m 0,0 c 0,1.381 -0.969,1.94 -2.165,1.25 l -111.571,-64.41 c -1.196,-0.69 -2.165,-2.369 -2.165,-3.75 v -2.175 L 0,-2.175 Z"
             style="fill:#00dfbf;fill-opacity:1;fill-rule:nonzero;stroke:none"
             id="path540" />
        </g>
        <g
           id="g542"
           transform="translate(240.9556,278.5654)">
          <path
             d="m 0,0 -22.533,-13.009 c -0.957,-0.553 -1.732,-1.895 -1.732,-3 v -22.272 c 0,-1.105 0.775,-1.553 1.732,-1 L 0,-26.273 c 0.957,0.552 1.732,1.895 1.732,3 V -1 C 1.732,0.104 0.957,0.552 0,0"
             style="fill:#fafafa;fill-opacity:1;fill-rule:nonzero;stroke:none"
             id="path544" />
        </g>
        <g
           id="g546"
           transform="translate(224.6382,258.9932)">
          <path
             d="m 0,0 -7.948,-16.95 v -1.759 c 0,-1.104 0.776,-1.553 1.732,-1 l 22.533,13.008 c 0.957,0.553 1.732,1.895 1.732,3 v 7.696 l -4.261,8.036 c -0.517,0.975 -1.288,0.943 -1.72,-0.074 L 5.358,-3.818 2.099,0.25 C 1.409,1.112 0.469,1 0,0"
             style="fill:#00dfbf;fill-opacity:1;fill-rule:nonzero;stroke:none"
             id="path548" />
        </g>
        <g
           id="g550"
           transform="translate(219.2954,259.1973)">
          <path
             d="m 0,0 c 2.151,1.242 3.895,4.262 3.895,6.745 0,0.869 -0.218,1.553 -0.588,2.027 L -0.873,6.359 C -1.83,5.807 -2.605,4.464 -2.605,3.359 V -0.343 C -1.915,-0.664 -1.003,-0.579 0,0"
             style="fill:#00dfbf;fill-opacity:1;fill-rule:nonzero;stroke:none"
             id="path552" />
        </g>
        <g
           id="g554"
           transform="translate(252.874,283.4707)">
          <path
             d="m 0,0 69.653,40.214 c 0.956,0.552 1.733,0.174 1.733,-0.844 0,-1.019 -0.776,-2.293 -1.732,-2.845 L 0,-3.689 c -0.956,-0.553 -1.731,-0.175 -1.731,0.844 0,1.019 0.775,2.293 1.731,2.845"
             style="fill:#fafafa;fill-opacity:1;fill-rule:nonzero;stroke:none"
             id="path556" />
        </g>
        <g
           id="g558"
           transform="translate(252.874,274.0903)">
          <path
             d="m 0,0 69.653,40.214 c 0.956,0.552 1.733,0.174 1.733,-0.844 0,-1.019 -0.776,-2.293 -1.732,-2.845 L 0,-3.69 c -0.956,-0.552 -1.731,-0.174 -1.731,0.845 0,1.019 0.775,2.293 1.731,2.845"
             style="fill:#fafafa;fill-opacity:1;fill-rule:nonzero;stroke:none"
             id="path560" />
        </g>
        <g
           id="g562"
           transform="translate(252.874,264.71)">
          <path
             d="m 0,0 69.653,40.214 c 0.956,0.552 1.733,0.174 1.733,-0.845 0,-1.018 -0.776,-2.292 -1.732,-2.845 L 0,-3.69 c -0.956,-0.552 -1.731,-0.174 -1.731,0.845 0,1.019 0.775,2.293 1.731,2.845"
             style="fill:#fafafa;fill-opacity:1;fill-rule:nonzero;stroke:none"
             id="path564" />
        </g>
      </g>
    </g>
    <g
       id="g566">
      <g
         id="g568"
         clip-path="url(#clipPath572)">
        <g
           id="g574"
           transform="translate(366.8398,374.6914)">
          <path
             d="m 0,0 -10.224,0.284 c -0.687,0.588 -11.425,12.708 -11.425,12.708 0,0 -3.865,-6.097 -3.929,-6.486 -0.065,-0.388 10.529,-11.717 11.576,-12.86 0.58,-0.633 1.111,-1.139 2.5,-1.223 2.771,-0.166 13.146,-0.895 13.146,-0.895 z"
             style="fill:#ff9090;fill-opacity:1;fill-rule:nonzero;stroke:none"
             id="path576" />
        </g>
        <g
           id="g578"
           transform="translate(381.3789,362.9443)">
          <path
             d="M 0,0 -15.761,1.166 -14.539,11.747 1.73,11.392 Z"
             style="fill:#00dfbf;fill-opacity:1;fill-rule:nonzero;stroke:none"
             id="path580" />
        </g>
        <g
           id="g582">
          <g
             id="g584" />
          <g
             id="g596">
            <g
               clip-path="url(#clipPath588)"
               opacity="0.199997"
               id="g594">
              <g
                 transform="translate(381.3789,362.9443)"
                 id="g592">
                <path
                   d="M 0,0 -15.761,1.166 -14.539,11.747 1.73,11.392 Z"
                   style="fill:#000000;fill-opacity:1;fill-rule:nonzero;stroke:none"
                   id="path590" />
              </g>
            </g>
          </g>
        </g>
        <g
           id="g598"
           transform="translate(235.916,328.1406)">
          <path
             d="m 0,0 111.571,64.41 c 1.196,0.69 2.165,0.131 2.165,-1.25 V 30.624 c 0,-1.381 -0.968,-3.06 -2.165,-3.75 L 0,-37.536 c -1.196,-0.691 -2.165,-0.131 -2.165,1.25 L -2.166,-3.75 c 0,1.38 0.97,3.06 2.166,3.75"
             style="fill:#e1e1e1;fill-opacity:1;fill-rule:nonzero;stroke:none"
             id="path600" />
        </g>
        <g
           id="g602"
           transform="translate(349.6523,391.3003)">
          <path
             d="m 0,0 c 0,1.381 -0.97,1.94 -2.165,1.25 l -111.571,-64.41 c -1.196,-0.69 -2.166,-2.369 -2.165,-3.75 v -2.175 L 0,-2.175 Z"
             style="fill:#00dfbf;fill-opacity:1;fill-rule:nonzero;stroke:none"
             id="path604" />
        </g>
        <g
           id="g606"
           transform="translate(261.2656,334.8916)">
          <path
             d="m 0,0 -22.533,-13.009 c -0.957,-0.553 -1.732,-1.895 -1.732,-3 v -22.272 c 0,-1.105 0.775,-1.552 1.732,-1 L 0,-26.273 c 0.957,0.552 1.732,1.895 1.732,3 V -1 C 1.732,0.104 0.957,0.552 0,0"
             style="fill:#fafafa;fill-opacity:1;fill-rule:nonzero;stroke:none"
             id="path608" />
        </g>
        <g
           id="g610"
           transform="translate(244.9482,315.3193)">
          <path
             d="m 0,0 -7.948,-16.951 v -1.758 c 0,-1.104 0.776,-1.552 1.732,-1 l 22.533,13.008 c 0.957,0.553 1.733,1.895 1.733,3 v 7.696 l -4.262,8.036 c -0.517,0.975 -1.287,0.943 -1.72,-0.074 L 5.358,-3.818 2.1,0.25 C 1.409,1.112 0.469,1 0,0"
             style="fill:#00dfbf;fill-opacity:1;fill-rule:nonzero;stroke:none"
             id="path612" />
        </g>
        <g
           id="g614"
           transform="translate(239.6055,315.5234)">
          <path
             d="m 0,0 c 2.151,1.242 3.895,4.262 3.895,6.745 0,0.869 -0.218,1.553 -0.588,2.027 L -0.873,6.359 C -1.83,5.807 -2.605,4.464 -2.605,3.359 V -0.343 C -1.915,-0.664 -1.003,-0.579 0,0"
             style="fill:#00dfbf;fill-opacity:1;fill-rule:nonzero;stroke:none"
             id="path616" />
        </g>
        <g
           id="g618"
           transform="translate(273.1846,339.7969)">
          <path
             d="m 0,0 69.653,40.214 c 0.956,0.552 1.732,0.174 1.732,-0.844 10e-4,-1.019 -0.775,-2.293 -1.732,-2.845 L 0,-3.689 c -0.957,-0.553 -1.732,-0.175 -1.732,0.844 0,1.019 0.775,2.293 1.732,2.845"
             style="fill:#fafafa;fill-opacity:1;fill-rule:nonzero;stroke:none"
             id="path620" />
        </g>
        <g
           id="g622"
           transform="translate(273.1846,330.4165)">
          <path
             d="m 0,0 69.653,40.214 c 0.956,0.552 1.732,0.174 1.732,-0.844 10e-4,-1.019 -0.775,-2.293 -1.732,-2.845 L 0,-3.69 c -0.957,-0.552 -1.732,-0.174 -1.732,0.845 0,1.019 0.775,2.293 1.732,2.845"
             style="fill:#fafafa;fill-opacity:1;fill-rule:nonzero;stroke:none"
             id="path624" />
        </g>
        <g
           id="g626"
           transform="translate(273.1846,321.0361)">
          <path
             d="m 0,0 69.653,40.214 c 0.956,0.552 1.732,0.174 1.732,-0.845 10e-4,-1.018 -0.775,-2.292 -1.732,-2.844 L 0,-3.69 c -0.957,-0.552 -1.732,-0.174 -1.732,0.845 0,1.019 0.775,2.293 1.732,2.845"
             style="fill:#fafafa;fill-opacity:1;fill-rule:nonzero;stroke:none"
             id="path628" />
        </g>
        <path
           d="m 401.502,242.484 h -5.904 v 8.598 h 5.904 z"
           style="fill:#ffaaa8;fill-opacity:1;fill-rule:nonzero;stroke:none"
           id="path630" />
        <g
           id="g632"
           transform="translate(381.0312,253.1309)">
          <path
             d="m 0,0 -5.901,-0.203 -0.296,8.594 5.901,0.202 z"
             style="fill:#ffaaa8;fill-opacity:1;fill-rule:nonzero;stroke:none"
             id="path634" />
        </g>
        <g
           id="g636"
           transform="translate(401.1143,335.02)">
          <path
             d="m 0,0 c 0,-5.638 0.729,-42.111 0.729,-42.111 0.138,-1.622 1.659,-4.614 1.33,-10.845 C 1.611,-61.42 0.88,-84.935 0.88,-84.935 c 0,0 -2.769,-2.744 -6.678,0 0,0 -5.346,31.95 -6.404,40.338 -0.923,7.321 -2.489,27.209 -2.489,27.209 l -5.471,-23.41 c 0,0 0.963,-5.503 1.174,-9.388 0.212,-3.883 -1.002,-26.317 -1.002,-26.317 0,0 -3.001,-2.075 -6.425,-0.245 0,0 -4.743,32.777 -5.353,36.285 C -32.376,-36.955 -27.615,0 -27.615,0 Z"
             style="fill:#375a64;fill-opacity:1;fill-rule:nonzero;stroke:none"
             id="path638" />
        </g>
        <g
           id="g640"
           transform="translate(392.2266,374.0684)">
          <path
             d="M 0,0 C 0.026,-0.006 0.053,-0.013 0.08,-0.019 5.279,-1.31 8.888,-6.05 8.888,-11.407 v -10.17 -17.471 c -4.141,-4.504 -18.575,-6.603 -27.616,0 v 28.781 c 0,4.6 2.555,10.124 9.611,10.535 z"
             style="fill:#00dfbf;fill-opacity:1;fill-rule:nonzero;stroke:none"
             id="path642" />
        </g>
        <g
           id="g644"
           transform="translate(394.2139,397.606)">
          <path
             d="M 0,0 C 0,0 1.463,0.25 2.604,-0.916 3.722,-2.059 3.489,-4.175 2.602,-9.039 l -3.456,-0.397 z"
             style="fill:#1a2e35;fill-opacity:1;fill-rule:nonzero;stroke:none"
             id="path646" />
        </g>
        <g
           id="g648"
           transform="translate(374.0654,399.0127)">
          <path
             d="m 0,0 c 0,0 -1.396,-0.001 -2.162,0.439 -1.061,0.609 -1.338,-0.596 -0.756,-1.644 0.581,-1.047 1.667,-2.411 4.009,-2.67 0.031,0.15 0.992,2.699 0.992,2.699 z"
             style="fill:#1a2e35;fill-opacity:1;fill-rule:nonzero;stroke:none"
             id="path650" />
        </g>
        <g
           id="g652"
           transform="translate(392.5928,388.168)">
          <path
             d="M 0,0 C 0.513,-0.306 1.245,0.679 1.878,1.341 2.511,2.003 4.576,2.908 5.606,0.737 6.656,-1.476 4.272,-4.417 2.873,-5.39 1.21,-6.545 0,-5.639 0,-5.639 L -0.366,-14.1 c 0,0 -1.835,-4.489 -6.804,-5.162 -4.968,-0.674 -3.945,3.423 -2.313,5.43 l 0.007,3.076 c 0,0 -2.566,-0.516 -3.777,-0.194 -0.648,0.173 -2.193,2.042 -3.191,4.133 -1.12,2.347 -2.984,6.516 -1.326,13.565 1.783,7.573 9.917,7.804 14.769,4.751 C 1.85,8.445 0,0 0,0"
             style="fill:#ffaaa8;fill-opacity:1;fill-rule:nonzero;stroke:none"
             id="path654" />
        </g>
        <g
           id="g656"
           transform="translate(392.5928,387.3047)">
          <path
             d="m 0,0 c 0.258,-0.005 1.239,1.624 1.878,2.205 0.885,0.805 -0.257,8.096 -0.257,8.096 0,0 0.896,2.766 -0.853,4.6 -1.749,1.834 -5.138,1.524 -7.617,1.614 -2.578,0.092 -5.339,0.248 -8.859,1.777 -3.52,1.529 -3.782,1.71 -4.219,0.164 -0.437,-1.545 -0.601,-5.085 1.499,-7.457 l 1.747,-0.643 c 0,0 0.944,-0.837 4.227,-1.236 3.282,-0.4 8.395,0.076 9.095,0.172 C -2.408,9.422 -2.204,8.5 -1.691,5.979 -1.241,3.767 -0.867,0.017 0,0"
             style="fill:#1a2e35;fill-opacity:1;fill-rule:nonzero;stroke:none"
             id="path658" />
        </g>
        <g
           id="g660"
           transform="translate(394.209,397.0391)">
          <path
             d="M 0,0 3.102,1.665 C 2.662,2.554 1.61,2.901 0.754,2.441 -0.103,1.982 -0.44,0.889 0,0"
             style="fill:#1a2e35;fill-opacity:1;fill-rule:nonzero;stroke:none"
             id="path662" />
        </g>
        <g
           id="g664"
           transform="translate(383.1172,377.4121)">
          <path
             d="m 0,0 c 0,0 4.601,0.927 6.209,1.782 1.076,0.572 1.963,1.564 2.223,2.199 0,0 -0.301,-1.365 -1.263,-2.594 C 5.992,-0.117 0,-1.224 0,-1.224 Z"
             style="fill:#ff9090;fill-opacity:1;fill-rule:nonzero;stroke:none"
             id="path666" />
        </g>
        <g
           id="g668"
           transform="translate(384.2227,389.3184)">
          <path
             d="m 0,0 c 0,-0.529 0.413,-0.957 0.922,-0.956 0.51,0.002 0.922,0.432 0.922,0.961 0,0.529 -0.412,0.956 -0.922,0.955 C 0.413,0.959 0,0.529 0,0"
             style="fill:#1a2e35;fill-opacity:1;fill-rule:nonzero;stroke:none"
             id="path670" />
        </g>
        <g
           id="g672"
           transform="translate(385.2002,392.7988)">
          <path
             d="m 0,0 1.973,-1.089 c 0.291,0.567 0.085,1.27 -0.46,1.57 C 0.968,0.782 0.291,0.566 0,0"
             style="fill:#1a2e35;fill-opacity:1;fill-rule:nonzero;stroke:none"
             id="path674" />
        </g>
        <g
           id="g676"
           transform="translate(384.292,383.0674)">
          <path
             d="m 0,0 -2.104,-0.79 c 0.208,-0.603 0.848,-0.915 1.429,-0.697 C -0.094,-1.269 0.208,-0.603 0,0"
             style="fill:#ff9090;fill-opacity:1;fill-rule:nonzero;stroke:none"
             id="path678" />
        </g>
        <g
           id="g680"
           transform="translate(376.002,392.0312)">
          <path
             d="M 0,0 1.799,1.385 C 1.432,1.9 0.731,2.007 0.235,1.625 -0.262,1.243 -0.366,0.515 0,0"
             style="fill:#1a2e35;fill-opacity:1;fill-rule:nonzero;stroke:none"
             id="path682" />
        </g>
        <g
           id="g684"
           transform="translate(376.5557,389.5806)">
          <path
             d="m 0,0 c 0,-0.529 0.413,-0.957 0.922,-0.955 0.509,0.001 0.922,0.431 0.922,0.96 0,0.529 -0.413,0.957 -0.922,0.955 C 0.413,0.959 0,0.529 0,0"
             style="fill:#1a2e35;fill-opacity:1;fill-rule:nonzero;stroke:none"
             id="path686" />
        </g>
        <g
           id="g688"
           transform="translate(381.252,390.4551)">
          <path
             d="m 0,0 -0.303,-5.544 -2.894,0.986 z"
             style="fill:#ff9090;fill-opacity:1;fill-rule:nonzero;stroke:none"
             id="path690" />
        </g>
        <g
           id="g692"
           transform="translate(395.5977,245.3984)">
          <path
             d="m 0,0 v 0.845 c -0.564,-0.246 -1.878,-5.254 -4.22,-7.391 -1.863,-1.699 -4.403,-3.661 -5.05,-5.555 -0.671,-1.969 3.539,-3.057 5.279,-2.749 2.021,0.359 5.525,1.782 6.405,3.102 0.88,1.319 1.291,3.266 2.006,4.233 0.715,0.967 2.363,2.047 2.749,3.166 0.213,0.615 -0.039,1.961 -0.338,3.1 -0.273,1.044 -0.57,2.191 -0.927,2.094 -0.001,-0.128 0,-0.644 0,-0.644 C 5.476,-0.274 4.29,-0.746 2.952,-0.797 2.089,-0.83 -0.007,-0.659 0,0"
             style="fill:#1a2e35;fill-opacity:1;fill-rule:nonzero;stroke:none"
             id="path694" />
        </g>
        <g
           id="g696"
           transform="translate(375.0674,254.7485)">
          <path
             d="m 0,0 c -0.307,-0.01 -0.557,-0.443 -1.232,-1.175 -0.818,-0.885 -2.155,-1.839 -3.474,-2.499 -2.211,-1.107 -6.509,-2.809 -8.454,-3.686 -1.216,-0.547 -1.158,-2.015 0.097,-2.85 1.257,-0.835 4.29,-1.438 7.931,-0.623 1.985,0.444 4.568,2.276 6.201,2.177 1.635,-0.098 4.694,-0.075 5.901,0.756 1.207,0.832 0.723,2.608 0.383,4.134 C 6.98,-2.1 6.447,0.449 5.896,0.335 L 5.914,-0.188 C 5.204,-1.263 1.591,-1.702 0.031,-0.911 Z"
             style="fill:#1a2e35;fill-opacity:1;fill-rule:nonzero;stroke:none"
             id="path698" />
        </g>
        <g
           id="g700"
           transform="translate(394.0156,370.2334)">
          <path
             d="m 0,0 -18.232,-18.861 c 0,0 -15.989,2.862 -21.459,4.427 -1.724,0.493 -2.921,3.06 -3.301,5.047 -0.38,1.986 -1.371,2.592 -1.371,2.592 0,0 -0.04,-1.406 -0.363,-3.723 -0.139,-1.006 -1.72,-1.129 -3.127,-1.432 -5.024,-1.079 -6.708,0.025 -8.769,-1.445 -1.599,-1.14 0.404,-4.1 4.059,-5.101 5.125,-1.404 7.955,-0.703 11.077,-1.477 2.407,-0.597 19.748,-6.042 23.049,-6.763 1.746,-0.381 3.075,-0.261 4.97,1.615 1.895,1.876 16.292,14.423 16.292,14.423 z"
             style="fill:#ffaaa8;fill-opacity:1;fill-rule:nonzero;stroke:none"
             id="path702" />
        </g>
        <g
           id="g704"
           transform="translate(394.8066,370.8848)">
          <path
             d="m 0,0 c -2.007,0.501 -14.194,-14.046 -14.194,-14.046 l 6.72,-5.636 c 0,0 8.694,5.699 10.239,7.981 C 4.31,-9.419 6.053,-1.514 0,0"
             style="fill:#00dfbf;fill-opacity:1;fill-rule:nonzero;stroke:none"
             id="path706" />
        </g>
        <g
           id="g708"
           transform="translate(387.7695,350.8569)">
          <path
             d="m 0,0 c 0,0 9.179,8.22 9.608,9.119 0.83,1.733 0.603,4.936 0.603,4.936 0,0 0.998,-2.784 0.028,-4.934 C 9.27,6.971 2.261,0.867 1.13,-0.188 L 0,-1.244 -1.09,-0.23 -0.437,0.346 Z"
             style="fill:#00dfbf;fill-opacity:1;fill-rule:nonzero;stroke:none"
             id="path710" />
        </g>
        <g
           id="g712">
          <g
             id="g714" />
          <g
             id="g726">
            <g
               clip-path="url(#clipPath718)"
               opacity="0.199997"
               id="g724">
              <g
                 transform="translate(387.7695,350.8569)"
                 id="g722">
                <path
                   d="m 0,0 c 0,0 9.179,8.22 9.608,9.119 0.83,1.733 0.603,4.936 0.603,4.936 0,0 0.998,-2.784 0.028,-4.934 C 9.27,6.971 2.261,0.867 1.13,-0.188 L 0,-1.244 -1.09,-0.23 -0.437,0.346 Z"
                   style="fill:#000000;fill-opacity:1;fill-rule:nonzero;stroke:none"
                   id="path720" />
              </g>
            </g>
          </g>
        </g>
        <g
           id="g728"
           transform="translate(341.6523,391.5615)">
          <path
             d="M 0,0 C 1.999,0.219 3.329,1.702 3.78,1.285 4.23,0.867 4.11,0.152 3.837,-0.165 3.28,-0.809 0.849,-1.89 0.849,-1.89 c 0,0 -0.345,-1.275 -0.543,-3.093 -0.167,-1.529 -0.11,-4.584 -1.417,-5.632 -3.908,-3.132 -4.913,1.846 -4.757,5.183 C -5.673,-1.286 -2.096,-0.229 0,0"
             style="fill:#ff9090;fill-opacity:1;fill-rule:nonzero;stroke:none"
             id="path730" />
        </g>
      </g>
    </g>
  </g>
</svg>
